<svg xmlns="http://www.w3.org/2000/svg" viewBox="0 0 144.55 144.55"><defs><style>.cls-1{fill:#16ffff;}</style></defs><g id="Layer_2" data-name="Layer 2"><g id="Lines"><path class="cls-1" d="M144.55,84.13V107c-2.78.43-5.56.83-8.34,1.3a2.69,2.69,0,0,0-1.51,3.81l4.66,6.53-16.08,16c-2.1-1.5-4.34-3.13-6.61-4.72-1.15-.8-3.5.22-3.73,1.59-.39,2.32-.82,4.63-1.13,7-.13,1-.52,1.39-1.6,1.38-5.13-.05-10.26,0-15.38,0H93.37c-.78,3.47-2.29,4.67-5.68,4.67h-82c-4,0-5.71-1.69-5.71-5.77V75.71c0-.33,0-.66,0-1A4.63,4.63,0,0,1,4.73,70c.73,0,1.46,0,2.34,0V18.6h30.2V0H92c.34.38.65.79,1,1.15C99,7.07,104.88,13,110.82,18.9a3.26,3.26,0,0,1,1.09,2.57c0,8.37,0,16.75,0,25.12a57.38,57.38,0,0,0,1,12.75A2.63,2.63,0,0,0,117,61l6.27-4.48,16.06,16.07-4.7,6.61c-.66.94.08,3.41,1.17,3.61C138.71,83.31,141.63,83.7,144.55,84.13Zm-70,51.11H4.77v4.55H88.51v-4.61h-9.1v-4.67h9.13v-40c-.58.32-1,.55-1.45.8-8.83,5.3-17.62,10.65-26.51,15.84a4,4,0,0,0-2.36,4.18c.15,3.48-1.79,5.27-5.29,5.28-4.18,0-8.37,0-12.56,0-3.57,0-5.36-1.8-5.38-5.38a9,9,0,0,1,0-1.27c.17-1-.31-1.57-1.19-2.09Q19.93,99.57,6.11,91.25c-.38-.24-.79-.43-1.33-.72v40.05h69.8c0,1.36,0,2.53,0,3.7C74.58,134.55,74.54,134.82,74.51,135.24ZM34.83,103c.67-3.4,2.05-5,4.61-5q7.19-.11,14.39,0a4.46,4.46,0,0,1,4.38,4c0,.3.12.61.17.89.16,0,.21,0,.24,0q14.7-8.79,29.4-17.6a1.21,1.21,0,0,0,.57-.84c0-3.23,0-6.47,0-9.76H4.68c0,3,.05,5.9,0,8.81A2.19,2.19,0,0,0,5.9,85.71Q19.77,94,33.6,102.3C34,102.54,34.41,102.75,34.83,103Zm40.1-44.91A4,4,0,0,0,77,54.24c-.1-9.69,0-19.38,0-29.07V23.42H11.73V69.86h4.61v-1.5c0-1.59,0-3.19,0-4.79,0-4.76,2.88-7.63,7.67-7.63,14.91,0,29.82,0,44.73,0A8.15,8.15,0,0,1,74.93,58.08Zm14-6.79h18.2v-28H88.59V4.76H42.1V18.69H81.67V28h20.79v4.68H81.68v4.62h20.77v4.74H81.6c0,5.11.13,10.05-.06,15a4.08,4.08,0,0,0,2.35,4.26c1.16.63,3.42-.28,3.65-1.58C88,57,88.47,54.23,89,51.29ZM122.9,62.51c-1.84,1.3-3.73,2.61-5.57,4a1.65,1.65,0,0,1-2,.2,38.07,38.07,0,0,0-5.06-2.12,2.08,2.08,0,0,1-1.58-2c-.3-2.22-.72-4.42-1.08-6.57H92.9c-.39,2.35-.81,4.62-1.13,6.9a1.69,1.69,0,0,1-1.31,1.56,53.84,53.84,0,0,0-5.32,2.23,1.56,1.56,0,0,1-1.88-.16c-1.91-1.42-3.87-2.78-6.1-4.37V70c3.36,0,6.73,0,10.1,0a10.92,10.92,0,0,0,3.41-.6A27.32,27.32,0,0,1,108.8,69a27.9,27.9,0,0,1,11.46,46.09,26.65,26.65,0,0,1-21.63,8.37c-1.75-.11-3.5-.4-5.3-.6v12.34h14.28c.37-2.28.75-4.55,1.12-6.82a1.68,1.68,0,0,1,1.21-1.63,53.87,53.87,0,0,0,5.33-2.21,1.7,1.7,0,0,1,2,.15c1.87,1.41,3.8,2.73,5.62,4l10.43-10.44c-1.32-1.85-2.76-3.81-4.12-5.83a1.84,1.84,0,0,1-.15-1.47q1.11-3,2.45-5.84a1.85,1.85,0,0,1,1.15-.91c2-.42,4.07-.78,6.11-1.06.83-.11,1.11-.41,1.1-1.24,0-4.18,0-8.37,0-12.55,0-.92-.32-1.2-1.2-1.31-2-.26-4-.6-6-1a2.17,2.17,0,0,1-1.29-1.13c-.82-1.74-1.45-3.57-2.27-5.3a1.65,1.65,0,0,1,.15-2c1.41-1.87,2.74-3.8,4.05-5.64ZM93.23,95.44c0,3.62,0,7.24,0,10.86a1.89,1.89,0,0,0,1.29,2,13.9,13.9,0,0,0,19.08-8.77,13,13,0,0,0-3.77-14c-4.35-4.11-9.53-5-15.15-2.71A2,2,0,0,0,93.2,85C93.3,88.47,93.23,92,93.23,95.44Zm-21-25.53V64.13c0-2.84-.65-3.48-3.48-3.48H24.52a3.46,3.46,0,0,0-1.52.08c-.69.38-1.72,1-1.76,1.52-.19,2.54-.09,5.1-.09,7.66Zm21,43.05c0,1.47,0,2.87,0,4.26,0,.27.46.67.77.76a22.59,22.59,0,0,0,13.47-.26,23.3,23.3,0,0,0-1.84-44.78,21.8,21.8,0,0,0-12.4.46v4.79c9.34-2.82,17.18-.79,22.59,7.38,4.37,6.6,4.32,13.75-.15,20.28C110.26,113.82,102.5,115.82,93.24,113Zm-39.7-1.14v-9.14H39.72v9.14ZM103.22,18.6,93.34,8.5V18.6Z"/><path class="cls-1" d="M72.21,28.06v4.52H16.41V28.06Z"/><path class="cls-1" d="M72.21,46.71v4.53H16.47V46.71Z"/><path class="cls-1" d="M35.06,41.88V37.37h37.1v4.51Z"/><path class="cls-1" d="M16.46,37.34h4.38v4.54H16.46Z"/><path class="cls-1" d="M25.72,41.82V37.38h4.45v4.44Z"/><path class="cls-1" d="M74.49,13.91H56V9.42H74.49Z"/><path class="cls-1" d="M46.65,13.9V9.44h4.56V13.9Z"/><path class="cls-1" d="M79.37,13.93V9.39h4.45v4.54Z"/><path class="cls-1" d="M121.89,70.8l3-2.88,3,3.15-3,2.86Z"/><path class="cls-1" d="M124.75,123.34l-2.87-3,3.22-2.89c.76.83,1.77,1.9,2.81,3Z"/><path class="cls-1" d="M102.5,58.44v4.42H98.05V58.44Z"/><path class="cls-1" d="M133,97.83V93.32h4.44v4.51Z"/><path class="cls-1" d="M98,132.84v-4.55h4.45v4.55Z"/></g></g></svg>