<svg xmlns="http://www.w3.org/2000/svg" xmlns:xlink="http://www.w3.org/1999/xlink" viewBox="0 0 166.62 150"><defs><style>.cls-1{fill:url(#linear-gradient);}.cls-2{fill:url(#linear-gradient-2);}.cls-3{fill:url(#linear-gradient-3);}.cls-4{fill:url(#linear-gradient-4);}</style><linearGradient id="linear-gradient" x1="-506.73" y1="436.52" x2="335.94" y2="-25.71" gradientUnits="userSpaceOnUse"><stop offset="0" stop-color="#16ffff"/><stop offset="1" stop-color="#ff18f7"/></linearGradient><linearGradient id="linear-gradient-2" x1="-521.49" y1="409.6" x2="321.17" y2="-52.62" xlink:href="#linear-gradient"/><linearGradient id="linear-gradient-3" x1="-546.73" y1="363.59" x2="295.93" y2="-98.64" xlink:href="#linear-gradient"/><linearGradient id="linear-gradient-4" x1="-533.17" y1="388.31" x2="309.49" y2="-73.92" xlink:href="#linear-gradient"/></defs><g id="Layer_2" data-name="Layer 2"><g id="BG"><path class="cls-1" d="M80.47,105.68v10.95H77.18c-1.39,5.56-2.75,11-4.15,16.61h20.6c-1.38-5.54-2.74-11-4.13-16.55H86.22v-11h80.35c0,2.94.17,5.93-.11,8.88-.07.78-1.49,1.51-2.4,2.07-.43.26-1.13.07-1.71.07H95.24c1.39,5.6,2.75,11,4.14,16.66h10.93c2.94,0,3.82.89,3.83,3.84,0,3.12,0,6.24,0,9.37,0,2.49-1,3.45-3.52,3.45H56.12c-2.61,0-3.58-1-3.6-3.55,0-3.24,0-6.49,0-9.73,0-2.39,1-3.37,3.4-3.38,3.75,0,7.51,0,11.34,0,1.39-5.56,2.75-11,4.16-16.66H4.05c-3.28,0-4-.78-4-4.11v-6.88Z"/><path class="cls-2" d="M119.33,59c11.42,2.18,26.44-9.25,25.55-19.31A42,42,0,0,0,119.33,59Z"/><path class="cls-3" d="M53.58,25H29v32.1H53.58Z"/><path class="cls-4" d="M.58,0V100h166V0ZM73.11,19.76a6.71,6.71,0,0,1,3.35-1.05c12.77-.07,25.54-.06,38.31,0,2.84,0,4.93,1.7,5.3,4.15a4.87,4.87,0,0,1-3.22,5.47,7.76,7.76,0,0,1-2.36.29c-6.31,0-12.62,0-18.93,0-6.51,0-13,0-19.54,0a4.77,4.77,0,0,1-4.66-3.36A4.65,4.65,0,0,1,73.11,19.76Zm3.34,16.31q14.51,0,29,0c3.2,0,5.38,2.09,5.35,5S108.62,46,105.49,46h-29c-3.18,0-5.43-2.11-5.39-5A5,5,0,0,1,76.45,36.07ZM19,41q0-10.22,0-20.45C19,16.88,20.91,15,24.56,15H58.1c3.56,0,5.52,1.91,5.53,5.45q0,20.61,0,41.21c0,3.56-1.93,5.45-5.51,5.46H24.43c-3.55,0-5.44-1.94-5.45-5.51Q19,51.28,19,41Zm55.53,43.5c-8.41,0-16.83,0-25.24,0s-16.73,0-25.1,0a5,5,0,0,1-.61-9.9,15,15,0,0,1,1.5,0H73.44c.4,0,.8,0,1.2,0a5,5,0,0,1,4.84,5.11A4.88,4.88,0,0,1,74.51,84.47ZM93.12,63.39q-8.34,0-16.67,0c-3.08,0-5.32-2.08-5.36-4.91s2.22-5,5.38-5h8.27c2.8,0,5.61,0,8.41,0a5,5,0,1,1,0,9.91Zm62.46-25c-.59,2.63-1,5.31-1.82,7.86a33.38,33.38,0,0,1-33.14,22.91c-1.79-.08-3.58-.27-5.6-.43-.43,2-.74,4.12-1.32,6.12a10.73,10.73,0,0,1-1.83,4,4.51,4.51,0,0,1-5.41.77,4.81,4.81,0,0,1-2.69-4.95,50.82,50.82,0,0,1,5.16-17.16c8-15.91,21.08-25,38.25-28.6a14.76,14.76,0,0,1,1.49-.17c3.89-.41,5.33.42,6.91,4Z"/></g></g></svg>