<svg xmlns="http://www.w3.org/2000/svg" xmlns:xlink="http://www.w3.org/1999/xlink" viewBox="0 0 166.62 150"><defs><style>.cls-1{fill:url(#linear-gradient);}.cls-2{fill:url(#linear-gradient-2);}</style><linearGradient id="linear-gradient" x1="-634.84" y1="506.79" x2="207.83" y2="44.56" gradientUnits="userSpaceOnUse"><stop offset="0" stop-color="#16ffff"/><stop offset="1" stop-color="#ff18f7"/></linearGradient><linearGradient id="linear-gradient-2" x1="-661.28" y1="458.58" x2="181.38" y2="-3.65" xlink:href="#linear-gradient"/></defs><g id="Layer_2" data-name="Layer 2"><g id="BG"><path class="cls-1" d="M80.47,105.68v10.95H77.18c-1.39,5.56-2.75,11-4.15,16.61h20.6c-1.38-5.54-2.74-11-4.13-16.55H86.22v-11h80.35c0,2.94.17,5.93-.11,8.88-.07.78-1.49,1.51-2.4,2.07-.43.26-1.13.07-1.71.07H95.24c1.39,5.6,2.75,11,4.14,16.66h10.93c2.94,0,3.82.89,3.83,3.84,0,3.12,0,6.24,0,9.37,0,2.49-1,3.45-3.52,3.45H56.12c-2.61,0-3.58-1-3.6-3.55,0-3.24,0-6.49,0-9.73,0-2.39,1-3.37,3.4-3.38,3.75,0,7.51,0,11.34,0,1.39-5.56,2.75-11,4.16-16.66H4.05c-3.28,0-4-.78-4-4.11v-6.88Z"/><path class="cls-2" d="M.58,0V100h166V0ZM79.26,15.83a11,11,0,0,1,9-10.4,1.23,1.23,0,0,0,.31-.14H91.2c.5.14,1,.27,1.49.43A10.94,10.94,0,0,1,99,11.3c.15.27.29.55.43.81a29.67,29.67,0,0,1,1.75-2.85c2.93-3.86,8.09-4.83,12.68-2.45,5,2.58,7.25,8,5.78,13.77a24.18,24.18,0,0,1-5.45,9.76,62.49,62.49,0,0,1-15,12.08c-6.87-4.62-13.4-9.62-17.57-17.06A17.36,17.36,0,0,1,79.26,15.83ZM50.91,95,40.77,69.54l8.43-5.06L59.35,89.92Zm76.76-35.09Q108.82,71.76,90,83.6a2.57,2.57,0,0,1-1.29.37c-8.29,0-16.59,0-24.88,0a1,1,0,0,1-1.14-.78c-2.12-5.39-4.28-10.78-6.42-16.17a1.44,1.44,0,0,1-.12-.9A18.68,18.68,0,0,1,62,57.3c3.5-2.78,7.48-3.12,11.69-2.17a8.44,8.44,0,0,1,1.51.43,13.63,13.63,0,0,0,5.83.87c3.24,0,6.48,0,9.72,0a3.81,3.81,0,0,1,3,6,3.85,3.85,0,0,1-3.42,1.59c-3.27,0-6.54,0-9.81,0H79.48v4.24l.89,0c4,0,7.94,0,11.91,0A7.75,7.75,0,0,0,96.6,67c2.57-1.62,5.2-3.12,7.82-4.65,2.87-1.68,5.73-3.37,8.62-5a17.44,17.44,0,0,1,14.11-1.53,2.37,2.37,0,0,1,1.84,2C129.16,58.79,128.48,59.4,127.67,59.91Z"/></g></g></svg>