<svg xmlns="http://www.w3.org/2000/svg" viewBox="0 0 105.68 105.68"><defs><style>.cls-1{fill:#16ffff;}</style></defs><g id="Layer_2" data-name="Layer 2"><g id="Layer_1-2" data-name="Layer 1"><path class="cls-1" d="M0,39.42c.82-1.78,2.24-2.3,4.16-2.3,13.68.06,27.37,0,41.06,0h1.3c-.3.35-.47.58-.67.78-1.82,1.83-3.62,3.68-5.47,5.47a11.94,11.94,0,0,0-2.81,4.27C36,51.79,34.34,55.92,32.63,60c-1.09,2.61-1.69,5.22-.61,8.1H15.85a3,3,0,0,0-3,1.94,2.88,2.88,0,0,0,.59,3.25,3.29,3.29,0,0,0,2.6,1c6.57,0,13.14-.17,19.71,0a28.12,28.12,0,0,0,13.17-2.59c3-1.38,6.15-2.37,9.15-3.73a14.2,14.2,0,0,0,4.09-2.68c6-5.84,11.85-11.79,17.75-17.7a6.76,6.76,0,0,0,.67-.92l.28.17c0,.29.06.57.06.86q0,27.18,0,54.37a3.69,3.69,0,0,1-2.29,3.54H2.27A4.77,4.77,0,0,1,0,103.41ZM40.67,80.5h-3.1q-10.87,0-21.75,0A3.08,3.08,0,0,0,15,86.6a5.88,5.88,0,0,0,1.33.09H59.78c1.86,0,3.71,0,5.57,0a3,3,0,0,0,2.92-1.91,3.08,3.08,0,0,0-3.06-4.27Q52.94,80.48,40.67,80.5Z"/><path class="cls-1" d="M105.68,12.59c-.74.92-1.43,1.9-2.24,2.76-1.38,1.47-2.84,2.87-4.2,4.23l-13.06-13C88.06,4.61,90,2.62,92,.66A5.08,5.08,0,0,1,93.09,0h1.44a19.71,19.71,0,0,1,2.18,1.64Q100.43,5.26,104,9a19.83,19.83,0,0,1,1.64,2.19Z"/><path class="cls-1" d="M48.68,44,81.53,11.19l12.9,12.93C83.55,35,72.54,46,61.6,57Z"/><path class="cls-1" d="M44,48.69l13,13a8.66,8.66,0,0,1-.91.5c-4.68,1.87-9.35,3.75-14,5.59a3,3,0,0,1-4.35-2.08,3.69,3.69,0,0,1,.2-2c1.84-4.73,3.74-9.43,5.63-14.14A6.38,6.38,0,0,1,44,48.69Z"/></g></g></svg>