<svg xmlns="http://www.w3.org/2000/svg" viewBox="0 0 121.37 106.66"><defs><style>.cls-1{fill:#16ffff;}</style></defs><g id="Layer_2" data-name="Layer 2"><g id="Layer_1-2" data-name="Layer 1"><path class="cls-1" d="M0,37.7c.12-.41.24-.83.35-1.24a10.68,10.68,0,0,1,10.25-8c2.05,0,4.11-.06,6.16,0a1.6,1.6,0,0,0,1.75-1.12c6.63-14,17.4-23,32.54-26.31a45.76,45.76,0,0,1,51.55,26.1,1.92,1.92,0,0,0,2.09,1.34,53.21,53.21,0,0,1,7.79.21,10.28,10.28,0,0,1,8.8,9.85c.12,5.13.13,10.27,0,15.4A10.54,10.54,0,0,1,111,64c-2.21.06-4.42.07-6.63,0a1.59,1.59,0,0,0-1.75,1.11A45.65,45.65,0,0,1,73.51,90.63c-.71.22-1.43.41-2.08.6a63.48,63.48,0,0,1-.35,6.7A10.5,10.5,0,0,1,60,106.64,10.75,10.75,0,0,1,50,96.76a10.61,10.61,0,0,1,8.69-11.18c1.86-.31,3.78-.21,5.66-.45,16-2,27.15-10.45,32.89-25.44,8.7-22.69-6-47.93-29.95-52A39.27,39.27,0,0,0,22,40.56a42.25,42.25,0,0,0,2,19.7c.4,1.19.78,2.38,1.23,3.75h-14C5.5,64,1.57,60.91.2,55.3c-.05-.18-.13-.36-.2-.54Z"/><path class="cls-1" d="M28.72,78.23V71.58c1.61-.75,3.11-1.38,4.53-2.15a4.44,4.44,0,0,0,1.27-1.38c1.11-1.55,1.09-1.82,0-3.39A32,32,0,1,1,65.2,77.91a30.37,30.37,0,0,1-4.37.3q-15.63,0-31.27,0ZM49.9,49.77v-7H43v7Zm7.26-.06h7v-7h-7Zm21.2.06v-7H71.42v7Z"/></g></g></svg>