<svg xmlns="http://www.w3.org/2000/svg" viewBox="0 0 105.75 106.65"><defs><style>.cls-1{fill:#16ffff;}</style></defs><g id="Layer_2" data-name="Layer 2"><g id="Layer_1-2" data-name="Layer 1"><path class="cls-1" d="M80.9,95.23c.8,4-1.52,7.06-2.71,10.39a1.52,1.52,0,0,1-1.64,1l-20.84-.29a1.7,1.7,0,0,1-1.64-1.07c-1.08-2.16-2.3-4.26-3.25-6.47a14.93,14.93,0,0,1-.56-3.58H7.45C2.58,95.24,0,92.66,0,87.81V7.4C0,2.62,2.61,0,7.37,0H98.32c4.83,0,7.42,2.6,7.42,7.46q0,40.1,0,80.18c0,5-2.53,7.59-7.53,7.59H80.9ZM2.54,17.49H103.19c0-3.87.06-7.65,0-11.42a4.22,4.22,0,0,0-1-2.27c-.89-1.13-2.22-1.28-3.6-1.28H7.22c-.35,0-.7,0-1,0a3.82,3.82,0,0,0-3.6,3.54C2.48,9.86,2.54,13.64,2.54,17.49ZM52.91,81.84c0,3.24.2,6.49,0,9.71A17.27,17.27,0,0,0,55.67,103a.68.68,0,0,1,.1.21c.2.6.59.77,1.24.78,5.38,0,10.76.13,16.14.2,2.95,0,3,0,4.09-2.72a11.36,11.36,0,0,0,1.23-3.73c.13-5.38,0-10.76,0-16.14,0-1.6-.77-2.56-2-2.68S74.31,79.5,74,81.1c-.16.77-.55,1.25-1.31,1.21A1.2,1.2,0,0,1,71.53,81v-.47c0-2-.66-3-2-3.17s-1.93.56-2.58,2.43c-.15.43-.85,1-1.19.93a1.93,1.93,0,0,1-1.14-1.15,7,7,0,0,1-.09-1.73,2.2,2.2,0,0,0-2.33-2,2.11,2.11,0,0,0-2.12,2.06,18.88,18.88,0,0,0,0,2c0,.92.05,1.9-1.19,2-.9.11-1.4-.68-1.4-2.13V71.21c0-1.64,0-3.28,0-4.92a2.2,2.2,0,0,0-2.2-2.14,2.28,2.28,0,0,0-2.23,2,8.93,8.93,0,0,0,0,1.16ZM69.17,63.32c-.85-2.59-1.64-5-2.5-7.58.28-.26.83-.76,1.35-1.29a1.19,1.19,0,0,0,.11-1.85,1.14,1.14,0,0,0-1.84.08,20.8,20.8,0,0,0-1.24,1.68,14.45,14.45,0,0,0-8-4.1c-.25,0-.49-.46-.63-.75s0-.45,0-.69a1.18,1.18,0,0,0-1.22-1.29c-.79,0-1.13.51-1.25,1.27-.08.5-.28,1.37-.52,1.41A14.49,14.49,0,0,0,45,54.71a13,13,0,0,0-1-1.39,1.14,1.14,0,0,0-1.76-.11,1.17,1.17,0,0,0,0,1.85,15.77,15.77,0,0,0,1.61,1.17l-.55.25L41.24,63.3a2.73,2.73,0,0,0-1.2.09c-.48.24-1.07.7-1.17,1.16-.16.74.41,1.19,1.2,1.24a3.75,3.75,0,0,0,.58,0c.74-.1,1,.18,1.26,1a27.12,27.12,0,0,0,1.92,4.47,1.74,1.74,0,0,0,1.57.42c.72-.23.86-.94.51-1.65-.14-.28-.32-.54-.47-.81a11.13,11.13,0,0,1,7.32-16.24A10.45,10.45,0,0,1,64,57.12c2.8,3.74,3,7.82.88,12-.42.83-.79,1.67.25,2.21s1.62-.21,2-1.06c.59-1.42,1.11-2.88,1.7-4.42.8-.12,2.15.23,2.18-1.27C71,63.24,69.87,63.35,69.17,63.32ZM80,64.54a5.76,5.76,0,1,0,5.72-5.76A5.77,5.77,0,0,0,80,64.54ZM55.11,38.59A5.83,5.83,0,0,0,61,32.81a5.78,5.78,0,0,0-11.56,0A5.84,5.84,0,0,0,55.11,38.59ZM24,70.35a5.79,5.79,0,1,0-5.72-5.78A5.84,5.84,0,0,0,24,70.35ZM84.27,42.12a5.61,5.61,0,0,0-5.74-5.65,5.67,5.67,0,0,0-5.77,5.77,5.76,5.76,0,1,0,11.51-.12Zm-52.45-5A5.71,5.71,0,0,0,26,42.85a5.78,5.78,0,0,0,11.56,0A5.67,5.67,0,0,0,31.82,37.14ZM70.55,51.37c.81,0,2.91-2.11,2.86-2.9s-1.06-1.54-1.75-1a10.34,10.34,0,0,0-2.18,2.2C69,50.35,69.68,51.36,70.55,51.37ZM36.92,49.22c0,.74,2,2.74,2.73,2.79a1.17,1.17,0,0,0,1.16-1.73,9.16,9.16,0,0,0-2.12-2.14A1.16,1.16,0,0,0,36.92,49.22ZM75.56,65.79c.39,0,.78,0,1.17,0A1.14,1.14,0,0,0,78,64.55c0-.8-.51-1.17-1.28-1.2-.39,0-.78,0-1.17,0-.94,0-2.08-.23-2.25,1.19C73.17,65.44,73.87,65.8,75.56,65.79ZM56.4,43c0-.39,0-.78,0-1.17,0-.79-.51-1.35-1.23-1.22-.46.09-.91.69-1.18,1.17A2.77,2.77,0,0,0,53.94,43c0,1-.21,2.09,1.2,2.26C56,45.42,56.41,44.69,56.4,43ZM34.23,65.79c.39,0,.86.14,1.15,0,.46-.28,1.11-.76,1.13-1.16a1.68,1.68,0,0,0-1.07-1.18,5.08,5.08,0,0,0-2.42,0c-.46.12-1.09.79-1.08,1.19s.67.88,1.14,1.16C33.37,65.93,33.84,65.79,34.23,65.79Z"/><path class="cls-1" d="M71,9.59c.43,0,.94-.15,1.26,0s1.11.77,1.12,1.18A1.7,1.7,0,0,1,72.32,12a8.13,8.13,0,0,1-2.42.06,1.2,1.2,0,0,1-1.3-1.22A1.22,1.22,0,0,1,70,9.58h1Z"/><path class="cls-1" d="M90,9.59c.39,0,.86-.14,1.14,0,.48.29,1.13.77,1.14,1.18A1.72,1.72,0,0,1,91.2,12a7.59,7.59,0,0,1-2.43.06c-.79-.05-1.33-.46-1.28-1.33s.58-1.14,1.33-1.17H90Z"/><path class="cls-1" d="M80.43,9.58c.39,0,.78,0,1.16,0a1.17,1.17,0,0,1,1.27,1.22,1.17,1.17,0,0,1-1.22,1.26,16.47,16.47,0,0,1-2.33,0,1.25,1.25,0,1,1,.07-2.5Z"/></g></g></svg>