<svg xmlns="http://www.w3.org/2000/svg" viewBox="0 0 104.39 105.72"><defs><style>.cls-1{fill:#16ffff;}</style></defs><g id="Layer_2" data-name="Layer 2"><g id="Layer_1-2" data-name="Layer 1"><path class="cls-1" d="M9.48,105.72a25.82,25.82,0,0,1-3.85-1.37A10.47,10.47,0,0,1,0,95.41c0-.3,0-.61,0-.92Q0,62.23,0,30c0-5.08,2.74-9.14,7.29-10.61a13.16,13.16,0,0,1,4.05-.6c21.71,0,43.42,0,65.13-.05,2.19,0,2.92,1.49,2.12,3.37-1.32,3.13-2.7,6.23-4.06,9.35-.57,0-1.1-.07-1.64-.07H16c-2.42,0-3,.55-3,3V50.13c0,2.34.61,2.95,2.92,2.95H65.69c-.57,1.42-1.06,2.75-1.66,4-.09.21-.63.29-1,.29-4,0-8,0-12,0-2.14,0-2.79.65-2.8,2.76,0,5,.09,9.91,0,14.86,0,1.49-.87,2.93-1,4.43-.2,1.91-1.63,2.66-2.86,3.65a1.44,1.44,0,0,1-.5.34c-1.88.34-3.08,1.57-4.24,3.1V59.83c0-2.19-.65-2.83-2.83-2.83H16.24c-2.06,0-2.74.66-2.74,2.7q0,14.72,0,29.42c0,2,.69,2.69,2.67,2.69,6.88,0,13.76,0,20.64,0A7.75,7.75,0,0,0,39.17,91c3.06,5.47,8.3,7.83,14.43,8.52A25.57,25.57,0,0,0,68.31,96.8c4.54-2.32,6.93-6.35,8.63-10.88a16.06,16.06,0,0,0,.83-9.62,2.57,2.57,0,0,1,.31-1.47Q80.27,70,82.5,65.18a2.63,2.63,0,0,1,2.43-1.75,2.78,2.78,0,0,1,1.94,2.32A14.08,14.08,0,0,1,87,67.91q0,13,0,26c0,6.4-3,10.18-9.26,11.67-.06,0-.1.08-.16.13Z"/><path class="cls-1" d="M82.2,55.24c-3.8-1.9-7.5-3.76-11.28-5.64l3.6-8.51Q82.16,23,89.81,4.93A7.79,7.79,0,0,1,98.07.08c4.37.67,8,5.05,5.47,10.39-2.94,6.1-5.82,12.22-8.73,18.33L82.73,54.21C82.58,54.52,82.42,54.82,82.2,55.24Z"/><path class="cls-1" d="M55.7,95.33a16.73,16.73,0,0,1-11-3.69,3.12,3.12,0,0,1-1.1-3.22c.11-.51.69-1,1.15-1.33.83-.66,1.76-1.19,2.6-1.83A9.94,9.94,0,0,0,51,79.14a12.3,12.3,0,0,1,10.53-10c5.5-.81,12.91,3.72,11.81,11.76a23,23,0,0,1-1.31,5c-2.2,5.73-6.8,8.27-12.57,9.15C58.24,95.16,57,95.21,55.7,95.33Z"/><path class="cls-1" d="M80.48,59.17c-1.1,2.32-2.16,4.55-3.2,6.78a16.45,16.45,0,0,0-.75,1.91A1.75,1.75,0,0,1,74.64,69a4.72,4.72,0,0,1-2.14-.82c-1.62-.95-3.2-2-4.76-3a10.56,10.56,0,0,1-2-1.67,1.49,1.49,0,0,1-.18-1.32c1.14-2.79,2.36-5.55,3.55-8.32a2.08,2.08,0,0,1,.21-.24Z"/></g></g></svg>