<svg xmlns="http://www.w3.org/2000/svg" xmlns:xlink="http://www.w3.org/1999/xlink" viewBox="0 0 986.43 1031.85"><defs><style>.cls-1,.cls-10,.cls-11,.cls-12,.cls-13,.cls-14,.cls-15,.cls-16,.cls-17,.cls-18,.cls-19,.cls-2,.cls-20,.cls-21,.cls-22,.cls-23,.cls-24,.cls-25,.cls-26,.cls-27,.cls-28,.cls-29,.cls-3,.cls-30,.cls-31,.cls-32,.cls-33,.cls-34,.cls-35,.cls-36,.cls-37,.cls-38,.cls-39,.cls-4,.cls-40,.cls-41,.cls-42,.cls-43,.cls-44,.cls-45,.cls-46,.cls-47,.cls-48,.cls-49,.cls-5,.cls-50,.cls-51,.cls-6,.cls-7,.cls-8,.cls-9{opacity:0.3;}.cls-1{fill:url(#radial-gradient);}.cls-2{fill:url(#radial-gradient-2);}.cls-3{fill:url(#radial-gradient-3);}.cls-4{fill:url(#radial-gradient-4);}.cls-5{fill:url(#radial-gradient-5);}.cls-6{fill:url(#radial-gradient-6);}.cls-7{fill:url(#radial-gradient-7);}.cls-8{fill:url(#radial-gradient-8);}.cls-9{fill:url(#radial-gradient-9);}.cls-10{fill:url(#radial-gradient-10);}.cls-11{fill:url(#radial-gradient-11);}.cls-12{fill:url(#radial-gradient-12);}.cls-13{fill:url(#radial-gradient-13);}.cls-14{fill:url(#radial-gradient-14);}.cls-15{fill:url(#radial-gradient-15);}.cls-16{fill:url(#radial-gradient-16);}.cls-17{fill:url(#radial-gradient-17);}.cls-18{fill:url(#radial-gradient-18);}.cls-19{fill:url(#radial-gradient-19);}.cls-20{fill:url(#radial-gradient-20);}.cls-21{fill:url(#radial-gradient-21);}.cls-22{fill:url(#radial-gradient-22);}.cls-23{fill:url(#radial-gradient-23);}.cls-24{fill:url(#radial-gradient-24);}.cls-25{fill:url(#radial-gradient-25);}.cls-26{fill:url(#radial-gradient-26);}.cls-27{fill:url(#radial-gradient-27);}.cls-28{fill:url(#radial-gradient-28);}.cls-29{fill:url(#radial-gradient-29);}.cls-30{fill:url(#radial-gradient-30);}.cls-31{fill:url(#radial-gradient-31);}.cls-32{fill:url(#radial-gradient-32);}.cls-33{fill:url(#radial-gradient-33);}.cls-34{fill:url(#radial-gradient-34);}.cls-35{fill:url(#radial-gradient-35);}.cls-36{fill:url(#radial-gradient-36);}.cls-37{fill:url(#radial-gradient-37);}.cls-38{fill:url(#radial-gradient-38);}.cls-39{fill:url(#radial-gradient-39);}.cls-40{fill:url(#radial-gradient-40);}.cls-41{fill:url(#radial-gradient-41);}.cls-42{fill:url(#radial-gradient-42);}.cls-43{fill:url(#radial-gradient-43);}.cls-44{fill:url(#radial-gradient-44);}.cls-45{fill:url(#radial-gradient-45);}.cls-46{fill:url(#radial-gradient-46);}.cls-47{fill:url(#radial-gradient-47);}.cls-48{fill:url(#radial-gradient-48);}.cls-49{fill:url(#radial-gradient-49);}.cls-50{fill:url(#radial-gradient-50);}.cls-51{fill:url(#radial-gradient-51);}.cls-52{fill:url(#radial-gradient-52);}.cls-53{fill:url(#radial-gradient-53);}</style><radialGradient id="radial-gradient" cx="-2941.66" cy="-786.28" r="46.34" gradientTransform="matrix(-0.93, -0.51, -0.49, 0.87, -2668.58, -486.12)" gradientUnits="userSpaceOnUse"><stop offset="0" stop-color="#263595"/><stop offset="0.14" stop-color="#263595" stop-opacity="0.96"/><stop offset="0.31" stop-color="#263595" stop-opacity="0.86"/><stop offset="0.5" stop-color="#263595" stop-opacity="0.69"/><stop offset="0.7" stop-color="#263595" stop-opacity="0.46"/><stop offset="0.9" stop-color="#263595" stop-opacity="0.16"/><stop offset="1" stop-color="#263595" stop-opacity="0"/></radialGradient><radialGradient id="radial-gradient-2" cx="-2553.09" cy="-863.96" r="40.97" xlink:href="#radial-gradient"/><radialGradient id="radial-gradient-3" cx="-2957.63" cy="-847.12" r="30.03" xlink:href="#radial-gradient"/><radialGradient id="radial-gradient-4" cx="-2871.16" cy="-896.61" r="38.68" xlink:href="#radial-gradient"/><radialGradient id="radial-gradient-5" cx="-2946.91" cy="-861.94" r="34.11" xlink:href="#radial-gradient"/><radialGradient id="radial-gradient-6" cx="-2953.3" cy="-1081.99" r="25.59" xlink:href="#radial-gradient"/><radialGradient id="radial-gradient-7" cx="-3116.39" cy="-942.91" r="47.78" xlink:href="#radial-gradient"/><radialGradient id="radial-gradient-8" cx="-3113.33" cy="-1116.75" r="105.15" xlink:href="#radial-gradient"/><radialGradient id="radial-gradient-9" cx="-3139.97" cy="-1143.5" r="22.15" xlink:href="#radial-gradient"/><radialGradient id="radial-gradient-10" cx="-3173.51" cy="-961.52" r="37.1" xlink:href="#radial-gradient"/><radialGradient id="radial-gradient-11" cx="-3208.09" cy="-987.67" r="48.14" xlink:href="#radial-gradient"/><radialGradient id="radial-gradient-12" cx="-3264.85" cy="-1110.1" r="43.16" xlink:href="#radial-gradient"/><radialGradient id="radial-gradient-13" cx="-3373.69" cy="-951.5" r="19.63" xlink:href="#radial-gradient"/><radialGradient id="radial-gradient-14" cx="-3338.79" cy="-852.23" r="27.26" xlink:href="#radial-gradient"/><radialGradient id="radial-gradient-15" cx="-3363.15" cy="-830.79" r="24.11" xlink:href="#radial-gradient"/><radialGradient id="radial-gradient-16" cx="-3451.5" cy="-725.01" r="71.3" xlink:href="#radial-gradient"/><radialGradient id="radial-gradient-17" cx="-3358.54" cy="-711.75" r="40.29" xlink:href="#radial-gradient"/><radialGradient id="radial-gradient-18" cx="-3370.75" cy="-674.96" r="46.39" xlink:href="#radial-gradient"/><radialGradient id="radial-gradient-19" cx="-3537.45" cy="-559.55" r="17.14" xlink:href="#radial-gradient"/><radialGradient id="radial-gradient-20" cx="-3498.41" cy="-510.14" r="20.97" xlink:href="#radial-gradient"/><radialGradient id="radial-gradient-21" cx="-3446.82" cy="-332.06" r="34.45" xlink:href="#radial-gradient"/><radialGradient id="radial-gradient-22" cx="-3356.01" cy="-410.6" r="15.94" xlink:href="#radial-gradient"/><radialGradient id="radial-gradient-23" cx="-3305.6" cy="-433.24" r="19.33" xlink:href="#radial-gradient"/><radialGradient id="radial-gradient-24" cx="-3246.82" cy="-258.85" r="47.74" xlink:href="#radial-gradient"/><radialGradient id="radial-gradient-25" cx="-3155.8" cy="-339.67" r="31.88" xlink:href="#radial-gradient"/><radialGradient id="radial-gradient-26" cx="-3079.32" cy="-494.45" r="26.38" xlink:href="#radial-gradient"/><radialGradient id="radial-gradient-27" cx="-2930.65" cy="-325.77" r="77.17" xlink:href="#radial-gradient"/><radialGradient id="radial-gradient-28" cx="-2848.05" cy="-371.74" r="20.7" xlink:href="#radial-gradient"/><radialGradient id="radial-gradient-29" cx="-2803.3" cy="-479.12" r="38.52" xlink:href="#radial-gradient"/><radialGradient id="radial-gradient-30" cx="-2829.69" cy="-534.77" r="55.23" xlink:href="#radial-gradient"/><radialGradient id="radial-gradient-31" cx="-2827.66" cy="-609.15" r="82.13" xlink:href="#radial-gradient"/><radialGradient id="radial-gradient-32" cx="-2823.81" cy="-641.95" r="27.53" xlink:href="#radial-gradient"/><radialGradient id="radial-gradient-33" cx="-2854.67" cy="-744.27" r="33.75" xlink:href="#radial-gradient"/><radialGradient id="radial-gradient-34" cx="-2861.47" cy="-777.68" r="101.31" xlink:href="#radial-gradient"/><radialGradient id="radial-gradient-35" cx="3882.56" cy="3093.78" r="35.54" gradientTransform="matrix(0.25, -1.04, -0.97, -0.24, 2597.54, 4811.61)" gradientUnits="userSpaceOnUse"><stop offset="0" stop-color="#263595"/><stop offset="0.19" stop-color="#263595" stop-opacity="0.8"/><stop offset="0.75" stop-color="#263595" stop-opacity="0.23"/><stop offset="1" stop-color="#263595" stop-opacity="0"/></radialGradient><radialGradient id="radial-gradient-36" cx="-3328.97" cy="1192.77" r="29.59" gradientTransform="matrix(-0.93, -0.51, -0.49, 0.87, -2166.52, -2471.2)" xlink:href="#radial-gradient-35"/><radialGradient id="radial-gradient-37" cx="3916.37" cy="2941.18" r="22.2" xlink:href="#radial-gradient-35"/><radialGradient id="radial-gradient-38" cx="3774.89" cy="3061.84" r="41.45" xlink:href="#radial-gradient-35"/><radialGradient id="radial-gradient-39" cx="3754.43" cy="2887.82" r="19.22" xlink:href="#radial-gradient-35"/><radialGradient id="radial-gradient-40" cx="3646.09" cy="2916.81" r="37.44" xlink:href="#radial-gradient-35"/><radialGradient id="radial-gradient-41" cx="-3287.93" cy="1237.74" r="23.65" gradientTransform="matrix(-0.93, -0.51, -0.49, 0.87, -2166.52, -2471.2)" xlink:href="#radial-gradient-35"/><radialGradient id="radial-gradient-42" cx="-3309.06" cy="1256.35" r="20.92" gradientTransform="matrix(-0.93, -0.51, -0.49, 0.87, -2166.52, -2471.2)" xlink:href="#radial-gradient-35"/><radialGradient id="radial-gradient-43" cx="3229.72" cy="3467.48" r="16.77" xlink:href="#radial-gradient-35"/><radialGradient id="radial-gradient-44" cx="3386.94" cy="3358.45" r="32.27" xlink:href="#radial-gradient-35"/><radialGradient id="radial-gradient-45" cx="3426.03" cy="3414.37" r="22.88" xlink:href="#radial-gradient-35"/><radialGradient id="radial-gradient-46" cx="3674.17" cy="3591.54" r="17.96" xlink:href="#radial-gradient-35"/><radialGradient id="radial-gradient-47" cx="3712.99" cy="3498.39" r="33.41" xlink:href="#radial-gradient-35"/><radialGradient id="radial-gradient-48" cx="3690.1" cy="3450.1" r="47.91" xlink:href="#radial-gradient-35"/><radialGradient id="radial-gradient-49" cx="3691.85" cy="3385.58" r="71.26" xlink:href="#radial-gradient-35"/><radialGradient id="radial-gradient-50" cx="3695.2" cy="3357.12" r="23.89" xlink:href="#radial-gradient-35"/><radialGradient id="radial-gradient-51" cx="-3248.94" cy="1294.85" r="29.28" gradientTransform="matrix(-0.93, -0.51, -0.49, 0.87, -2166.52, -2471.2)" xlink:href="#radial-gradient-35"/><radialGradient id="radial-gradient-52" cx="534.82" cy="460.33" r="358.06" gradientTransform="translate(482.15 -243.34) rotate(45)" gradientUnits="userSpaceOnUse"><stop offset="0" stop-color="#92278f"/><stop offset="0.06" stop-color="#92278f" stop-opacity="0.87"/><stop offset="0.2" stop-color="#92278f" stop-opacity="0.61"/><stop offset="0.34" stop-color="#92278f" stop-opacity="0.39"/><stop offset="0.49" stop-color="#92278f" stop-opacity="0.22"/><stop offset="0.64" stop-color="#92278f" stop-opacity="0.1"/><stop offset="0.81" stop-color="#92278f" stop-opacity="0.02"/><stop offset="1" stop-color="#92278f" stop-opacity="0"/></radialGradient><radialGradient id="radial-gradient-53" cx="286.28" cy="745.56" r="286.28" gradientTransform="translate(611.04 15.94) rotate(45)" xlink:href="#radial-gradient-52"/></defs><g id="Layer_2" data-name="Layer 2"><g id="Layer_1-2" data-name="Layer 1"><path class="cls-1" d="M421.2,303.89C408.73,326.25,418,355,441.93,368s53.43,5.52,65.9-16.84S511,300.1,487.1,287.05,433.68,281.54,421.2,303.89Z"/><path class="cls-2" d="M100.85,40.55c-11,19.77-2.82,45.16,18.33,56.7s47.23,4.88,58.26-14.89,2.84-45.14-18.32-56.69S111.88,20.79,100.85,40.55Z"/><path class="cls-3" d="M481,267.21c-8.08,14.48-2.07,33.09,13.44,41.55s34.63,3.58,42.71-10.91,2.07-33.1-13.43-41.56S489.1,252.72,481,267.21Z"/><path class="cls-4" d="M416.23,175.44c-10.42,18.67-2.67,42.63,17.3,53.53s44.61,4.61,55-14.05,2.66-42.63-17.31-53.53S426.64,156.78,416.23,175.44Z"/><path class="cls-5" d="M474.42,246.72c-9.18,16.45-2.36,37.57,15.26,47.19S529,298,538.18,281.52s2.36-37.59-15.26-47.2S483.6,230.26,474.42,246.72Z"/><path class="cls-6" d="M595.61,62.09c-6.89,12.34-1.77,28.19,11.44,35.4s29.51,3,36.39-9.3S645.2,60,632,52.78,602.49,49.74,595.61,62.09Z"/><path class="cls-7" d="M659.54,255.45c-12.87,23.05-3.29,52.65,21.37,66.11s55.08,5.69,68-17.37,3.29-52.64-21.38-66.1S672.39,232.4,659.54,255.45Z"/><path class="cls-8" d="M687.77,72.76c-28.3,50.73-7.25,115.87,47,145.49s121.24,12.52,149.55-38.2,7.25-115.88-47.05-145.51S716.08,22,687.77,72.76Z"/><path class="cls-9" d="M803.29,105.32c-6,10.69-1.52,24.41,9.91,30.66s25.54,2.64,31.51-8.06,1.52-24.41-9.91-30.65S809.26,94.63,803.29,105.32Z"/><path class="cls-10" d="M732,273.78c-10,17.9-2.55,40.89,16.6,51.33s42.78,4.43,52.77-13.47,2.55-40.9-16.6-51.35S742,255.88,732,273.78Z"/><path class="cls-11" d="M766.73,263c-13,23.23-3.31,53.05,21.54,66.61s55.5,5.74,68.46-17.49,3.32-53.05-21.53-66.62S779.69,239.73,766.73,263Z"/><path class="cls-12" d="M884.11,187.49c-11.61,20.82-3,47.55,19.32,59.71s49.76,5.15,61.38-15.67,3-47.57-19.31-59.72S895.73,166.67,884.11,187.49Z"/><path class="cls-13" d="M930.56,393.56c-5.29,9.48-1.36,21.64,8.78,27.17s22.63,2.34,27.92-7.14,1.35-21.63-8.78-27.16S935.84,384.09,930.56,393.56Z"/><path class="cls-14" d="M842.42,458.58c-7.34,13.16-1.88,30.05,12.2,37.73s31.42,3.24,38.77-9.91,1.88-30-12.2-37.72S849.76,445.43,842.42,458.58Z"/><path class="cls-15" d="M857.68,491.35c-6.49,11.63-1.67,26.57,10.78,33.36s27.8,2.87,34.29-8.75,1.67-26.58-10.78-33.37S864.17,479.72,857.68,491.35Z"/><path class="cls-16" d="M844.6,604.75c-19.2,34.4-4.93,78.57,31.89,98.66S958.7,711.9,977.9,677.5s4.92-78.58-31.9-98.67S863.79,570.35,844.6,604.75Z"/><path class="cls-17" d="M780.23,584.74c-10.84,19.44-2.77,44.4,18,55.75s46.45,4.8,57.3-14.64,2.78-44.4-18-55.75S791.08,565.3,780.23,584.74Z"/><path class="cls-18" d="M768,620c-12.48,22.38-3.2,51.12,20.75,64.2s53.5,5.52,66-16.87,3.19-51.12-20.75-64.19S780.5,597.61,768,620Z"/><path class="cls-19" d="M894.93,820.78c-4.61,8.26-1.19,18.87,7.67,23.71s19.75,2,24.37-6.23,1.17-18.89-7.66-23.72S899.54,812.5,894.93,820.78Z"/><path class="cls-20" d="M830.77,842.07c-5.64,10.12-1.44,23.1,9.39,29s24.18,2.5,29.82-7.61,1.44-23.11-9.39-29S836.42,832,830.77,842.07Z"/><path class="cls-21" d="M683.15,964.45c-9.27,16.62-2.37,38,15.42,47.67s39.72,4.09,49-12.52,2.37-38-15.41-47.68S692.43,947.83,683.15,964.45Z"/><path class="cls-22" d="M653.85,859c-4.28,7.69-1.1,17.57,7.13,22.06s18.37,1.89,22.67-5.8,1.09-17.55-7.14-22S658.14,851.27,653.85,859Z"/><path class="cls-23" d="M614.58,811.73c-5.21,9.33-1.33,21.3,8.65,26.75s22.29,2.31,27.5-7,1.33-21.31-8.65-26.76S619.78,802.39,614.58,811.73Z"/><path class="cls-24" d="M448.08,919.6c-12.84,23-3.28,52.61,21.36,66.06s55.05,5.68,67.9-17.35,3.28-52.61-21.36-66.06S460.94,896.57,448.08,919.6Z"/><path class="cls-25" d="M417.21,810.66c-8.59,15.38-2.2,35.13,14.26,44.11s36.77,3.81,45.35-11.58,2.19-35.13-14.27-44.12S425.79,795.27,417.21,810.66Z"/><path class="cls-26" d="M426.3,639.23c-7.1,12.73-1.81,29.07,11.81,36.5s30.41,3.14,37.51-9.58,1.82-29.07-11.8-36.5S433.41,626.5,426.3,639.23Z"/><path class="cls-27" d="M157.64,684.85c-20.77,37.23-5.31,85,34.52,106.78s89,9.19,109.75-28,5.32-85-34.53-106.78S178.41,647.62,157.64,684.85Z"/><path class="cls-28" d="M155.62,631.35c-5.58,10-1.44,22.82,9.24,28.65s23.87,2.47,29.45-7.53,1.43-22.8-9.27-28.64S161.18,621.37,155.62,631.35Z"/><path class="cls-29" d="M149.47,505.64c-10.37,18.58-2.65,42.45,17.23,53.3s44.41,4.58,54.77-14,2.66-42.45-17.22-53.29S159.84,487.06,149.47,505.64Z"/><path class="cls-30" d="M185.63,462c-14.86,26.65-3.81,60.86,24.71,76.43S274,545,288.89,518.3s3.8-60.86-24.71-76.42S200.5,435.31,185.63,462Z"/><path class="cls-31" d="M194.84,382.23c-22.11,39.62-5.65,90.51,36.75,113.65s94.7,9.77,116.8-29.85,5.67-90.51-36.74-113.66S217,342.59,194.84,382.23Z"/><path class="cls-32" d="M258.27,379.45c-7.42,13.29-1.91,30.35,12.31,38.1s31.75,3.29,39.16-10,1.89-30.35-12.32-38.11S265.68,366.17,258.27,379.45Z"/><path class="cls-33" d="M331.17,302.64c-9.08,16.29-2.32,37.19,15.09,46.69s38.92,4,48-12.26,2.32-37.2-15.11-46.71S340.26,286.36,331.17,302.64Z"/><path class="cls-34" d="M290.67,242.46c-27.28,48.88-7,111.64,45.32,140.18s116.8,12.06,144.07-36.82,7-111.63-45.31-140.17S317.94,193.58,290.67,242.46Z"/><path class="cls-35" d="M575.09,1c-19-4.79-38.46,7.81-43.37,28.13s6.55,40.67,25.6,45.46,38.46-7.8,43.37-28.12S594.14,5.81,575.09,1Z"/><path class="cls-36" d="M325.61,264c-8,14.25-2.17,32.59,13.07,41s34.11,3.66,42.13-10.59,2.17-32.6-13.07-41S333.64,249.72,325.61,264Z"/><path class="cls-37" d="M728.25,17.05c-11.89-3-24,4.87-27.08,17.56s4.1,25.41,16,28.4,24-4.88,27.09-17.57S740.15,20,728.25,17.05Z"/><path class="cls-38" d="M580.65,114.16c-22.21-5.59-44.85,9.1-50.58,32.8s7.64,47.43,29.86,53,44.85-9.1,50.57-32.8S602.86,119.74,580.65,114.16Z"/><path class="cls-39" d="M738.81,200.79C728.51,198.2,718,205,715.36,216s3.54,22,13.84,24.58,20.8-4.22,23.45-15.2S749.11,203.38,738.81,200.79Z"/><path class="cls-40" d="M688.17,287c-20.06-5-40.51,8.23-45.68,29.63s6.89,42.85,27,47.9,40.52-8.22,45.68-29.63S708.23,292.06,688.17,287Z"/><path class="cls-41" d="M270.8,285.13c-6.42,11.38-1.74,26.06,10.45,32.77s27.25,2.92,33.67-8.46,1.73-26.06-10.45-32.77S277.21,273.75,270.8,285.13Z"/><path class="cls-42" d="M283.92,313.61c-5.67,10.07-1.54,23,9.24,29s24.11,2.59,29.78-7.47,1.54-23.05-9.24-29S289.59,303.54,283.92,313.61Z"/><path class="cls-43" d="M44.69,605.12c-9-2.26-18.15,3.68-20.47,13.27s3.08,19.2,12.08,21.46,18.15-3.68,20.47-13.27S53.68,607.38,44.69,605.12Z"/><path class="cls-44" d="M193.63,452.91c-17.29-4.34-34.91,7.09-39.37,25.54s6,36.93,23.24,41.28,34.93-7.09,39.38-25.54S210.93,457.26,193.63,452.91Z"/><path class="cls-45" d="M146.8,408.53c-12.26-3.08-24.76,5-27.91,18.11s4.21,26.18,16.47,29.27,24.76-5,27.92-18.11S159.07,411.62,146.8,408.53Z"/><path class="cls-46" d="M35.69,113.54c-9.62-2.42-19.43,3.94-21.91,14.2s3.31,20.56,12.94,23,19.42-3.94,21.91-14.22S45.31,116,35.69,113.54Z"/><path class="cls-47" d="M139.63,80.08c-17.9-4.5-36.15,7.34-40.77,26.44s6.16,38.24,24.06,42.74,36.17-7.34,40.78-26.43S157.54,84.59,139.63,80.08Z"/><path class="cls-48" d="M184.39,100.54c-25.68-6.46-51.85,10.51-58.47,37.92s8.83,54.83,34.51,61.28,51.85-10.52,58.46-37.91S210.05,107,184.39,100.54Z"/><path class="cls-49" d="M253.25,90.3c-38.17-9.6-77.1,15.65-86.94,56.38s13.14,81.54,51.31,91.14,77.12-15.64,86.95-56.38S291.44,99.9,253.25,90.3Z"/><path class="cls-50" d="M269.86,142.81c-12.8-3.22-25.85,5.24-29.14,18.9s4.39,27.34,17.2,30.56,25.85-5.25,29.15-18.91S282.66,146,269.86,142.81Z"/><path class="cls-51" d="M201.14,312c-7.94,14.1-2.14,32.26,12.93,40.57s33.75,3.62,41.69-10.47,2.14-32.27-12.94-40.58S209.08,297.89,201.14,312Z"/><circle class="cls-52" cx="534.82" cy="460.33" r="358.06" transform="translate(-168.86 513) rotate(-45)"/><circle class="cls-53" cx="286.28" cy="745.56" r="286.28" transform="translate(-443.34 420.8) rotate(-45)"/></g></g></svg>