<svg xmlns="http://www.w3.org/2000/svg" viewBox="0 0 110.46 124.6"><defs><style>.cls-1{fill:#16ffff;}</style></defs><g id="Layer_2" data-name="Layer 2"><g id="Layer_2-2" data-name="Layer 2"><path class="cls-1" d="M3.94,0H106.53V66.6H3.94ZM55.23,4.34H11.14c-2.37,0-2.9.52-2.9,2.88V59.41c0,2.37.53,2.9,2.89,2.9H99.3c2.38,0,2.91-.53,2.91-2.89V7.23c0-2.37-.53-2.89-2.9-2.89Z"/><path class="cls-1" d="M8,90.94h3.75c.75,7.23,5.7,11.1,11.39,14.29a56.79,56.79,0,0,0,20.83,6.46,80.37,80.37,0,0,0,32.91-2.16c6.16-1.78,12-4.3,16.77-8.71A14.33,14.33,0,0,0,98.69,91h3.74a13.61,13.61,0,0,1-1.52,6.53c-2.19,4.48-5.83,7.57-10,10.11a58.81,58.81,0,0,1-22.29,7.63,84.61,84.61,0,0,1-34.45-1.6c-7.42-2-14.39-4.86-20.12-10.16a17.69,17.69,0,0,1-6-10.82C8,92.15,8,91.6,8,90.94Z"/><path class="cls-1" d="M7.92,93.16v31.42H.08V93.16Z"/><path class="cls-1" d="M102.54,124.6V93.18h7.82V124.6Z"/><path class="cls-1" d="M110.44,89.18h-7.87a64.39,64.39,0,0,1,.05-6.52,3.8,3.8,0,0,1,4-3.19,3.93,3.93,0,0,1,3.78,3.8C110.5,85.19,110.44,87.11,110.44,89.18Z"/><path class="cls-1" d="M8,89.18H.05c0-2.14-.14-4.24,0-6.31a3.78,3.78,0,0,1,4.05-3.3,3.88,3.88,0,0,1,3.79,3.62c.1,1.46,0,2.92,0,4.38Z"/><path class="cls-1" d="M12.17,8.23H98.29c0,.44.07.84.07,1.24,0,6.77,0,13.55,0,20.32a1.74,1.74,0,0,1-1.06,1.81C88,36.62,78.77,41.69,69.5,46.73c-3.62,2-6.77,1.68-9.92-.93-4.23-3.5-8.44-7-12.65-10.55-5.13-4.29-10.39-4.59-16-.9L13.43,45.93c-.37.24-.75.46-1.26.77Zm62,14.43a10.33,10.33,0,0,0-20.65-.17,10.33,10.33,0,0,0,20.65.17Z"/><path class="cls-1" d="M98.32,35.43v23H12.09c0-2.19,0-4.37,0-6.55,0-.3.4-.67.71-.87,7-4.66,14-9.32,21.06-13.92a8,8,0,0,1,10,.73c4.3,3.56,8.57,7.16,12.86,10.73,4.75,4,9.37,4.41,14.84,1.45q12.48-6.77,24.93-13.58Z"/><path class="cls-1" d="M70.36,22.56a6.48,6.48,0,0,1-13,0,6.49,6.49,0,0,1,13,0Z"/></g></g></svg>