<svg xmlns="http://www.w3.org/2000/svg" viewBox="0 0 126.23 126.15"><defs><style>.cls-1{fill:#16ffff;}</style></defs><g id="Layer_2" data-name="Layer 2"><g id="Lines"><path class="cls-1" d="M95.67,46.9c0-5.71.09-11.3,0-16.9a5.77,5.77,0,0,0-5.53-5.51c-6.91-.11-13.81,0-20.89,0V26q0,16.15,0,32.32c0,6.63-4.27,10.91-10.88,10.91q-23.73,0-47.46,0C4.27,69.22,0,64.93,0,58.3V10.84C0,4.3,4.3,0,10.84,0H58.43c6.46,0,10.78,4.31,10.79,10.75,0,3.14,0,6.27,0,9.61H89.05c6.37,0,10.7,4.34,10.71,10.71,0,4.79,0,9.58,0,14.38v1.44c8.79.88,15.85,4.71,21,11.77a27.55,27.55,0,0,1,5.4,17.9A28.57,28.57,0,0,1,99.89,103.8c-.16.88-.26,1.8-.5,2.69A10.12,10.12,0,0,1,89.52,114c-8.9,0-17.81,0-26.72,0H61.14v12.13H.07V81.54h61v28.35c.38,0,.62,0,.87,0q13.74,0,27.48,0a6.11,6.11,0,0,0,6.18-5,10.59,10.59,0,0,0,.1-1.12c-15.33-1-26.07-14.27-26.44-27.32a28,28,0,0,1,7.29-20.16A28.37,28.37,0,0,1,95.67,46.9Zm-61,18.25H58.15c4.6,0,7-2.38,7-6.94V11c0-4.52-2.4-6.94-6.88-6.94H11c-4.43,0-6.88,2.43-6.88,6.82V58.34c0,4.38,2.46,6.81,6.88,6.81ZM56.94,122.1V85.59H4.17V122.1Zm62.5-35.93c4.47-7.83,3.92-20.69-5.5-29.1a24.4,24.4,0,0,0-32.13-.26C72.2,65.12,71.44,78.06,76,86.17a9.72,9.72,0,0,1,4.65-5.23,29.78,29.78,0,0,1,4.68-1.53c2.09-.59,4.21-1.08,6.31-1.62l.3-.54a5.09,5.09,0,0,1-1.1-.61,8.21,8.21,0,0,1-3-5.19,34.21,34.21,0,0,1,0-8.34,10,10,0,0,1,19.79.35,37,37,0,0,1,.2,5.58,10.11,10.11,0,0,1-3.45,7.77c-.25.24-.46.52-.82.93,2.56.65,4.87,1.35,7.22,1.82C114.82,80.35,117.82,82.31,119.44,86.17ZM104,67.28l-.2,0c0-.72,0-1.44,0-2.16a6.16,6.16,0,0,0-5.1-6,5.86,5.86,0,0,0-6.52,3.74,13.77,13.77,0,0,0-.09,8.61,3.69,3.69,0,0,0,1.59,2.2c2.16,1,2.1,2.77,2,4.64a10.1,10.1,0,0,0,0,1.65c.08.77-.19,1.11-1,1.29-3.37.79-6.73,1.67-10.1,2.5s-5.26,3.08-5.19,6.66A2.69,2.69,0,0,0,80,92.08,24.27,24.27,0,0,0,115.48,92,2.23,2.23,0,0,0,116,90.7c.15-3.73-1.57-6-5.16-6.94-3.4-.86-6.81-1.73-10.23-2.54-.66-.16-.91-.4-.89-1.09,0-1.4,0-2.8,0-4.2a2.56,2.56,0,0,1,.71-1.29c.93-1.06,2.19-2,2.77-3.17S103.81,68.69,104,67.28Z"/><path class="cls-1" d="M43.56,13l4.16-2.47,10.89,11-2.4,4.12c1.4.36,2.7.75,4,1,.69.14.87.46.86,1.12q0,6.81,0,13.61c0,.66-.18,1-.86,1.12-1.33.27-2.62.66-4,1,.74,1.26,1.39,2.44,2.13,3.56a.94.94,0,0,1-.17,1.41q-4.84,4.78-9.62,9.62a.93.93,0,0,1-1.4.18c-1.13-.74-2.31-1.39-3.58-2.15-.37,1.41-.74,2.7-1,4-.14.67-.41.9-1.1.89-4.53,0-9.07,0-13.6,0-.76,0-1-.26-1.17-1-.26-1.28-.64-2.54-1-3.93l-4.05,2.39-11-11L13,43.55c-1.39-.36-2.68-.73-4-1-.65-.13-.93-.35-.93-1.07,0-4.57,0-9.15,0-13.73a1.35,1.35,0,0,1,.78-1c1.28-.42,2.6-.7,4.08-1.08L10.57,21.5,21.49,10.56,25.66,13c.36-1.37.75-2.64,1-3.94.15-.72.43-1,1.17-1,4.5,0,9,0,13.49,0,.81,0,1.09.27,1.24,1C42.83,10.43,43.21,11.68,43.56,13Zm-27.87,9.1,2,3.33A2.51,2.51,0,0,1,16.33,29c-1.32.4-2.68.72-4,1.08v9l4,1a2.55,2.55,0,0,1,1.46,3.5c-.7,1.19-1.42,2.37-2,3.42l6.44,6.46c1.15-.68,2.37-1.44,3.62-2.15A2.66,2.66,0,0,1,29,52.77c.36,1.38.71,2.77,1.06,4.17h9c.36-1.38.69-2.7,1-4a2.6,2.6,0,0,1,3.52-1.44c1.19.7,2.37,1.42,3.4,2l6.45-6.44-2-3.28A2.47,2.47,0,0,1,53,40.18c1.32-.4,2.67-.71,4-1.06V30.17a1.17,1.17,0,0,0-.27-.14l-3.81-1a2.59,2.59,0,0,1-1.43-3.42c.7-1.21,1.43-2.39,2-3.4l-6.44-6.51c-1.11.66-2.3,1.39-3.51,2.09a2.65,2.65,0,0,1-3.35-1.41c-.37-1.38-.72-2.76-1.07-4.13h-9a1.58,1.58,0,0,0-.13.27c-.33,1.27-.65,2.54-1,3.81a2.57,2.57,0,0,1-3.43,1.42c-1.2-.7-2.39-1.43-3.5-2.1Z"/><path class="cls-1" d="M8.21,118V105.9h8v-4.09h8.16v-4h8.11v-4h8.17V89.66H52.83V118ZM44.88,93.71v20.2h4V93.71Zm-8.16,4.08v16.14h4V97.79ZM32.49,114V101.9H28.57V114Zm-8.14,0v-8H20.43v8Zm-12-4v3.91h3.91V110Z"/><path class="cls-1" d="M48.86,34.6A14.25,14.25,0,1,1,34.6,20.37,14.29,14.29,0,0,1,48.86,34.6ZM34.71,24.44a10.18,10.18,0,1,0,10.08,10.3A10.19,10.19,0,0,0,34.71,24.44Z"/></g></g></svg>