<svg xmlns="http://www.w3.org/2000/svg" viewBox="0 0 173.4 117.82"><defs><style>.cls-1,.cls-2{fill:#16ffff;}.cls-2{fill-rule:evenodd;}</style></defs><g id="Layer_2" data-name="Layer 2"><g id="Design"><path class="cls-1" d="M38.15,84.51V101a2.58,2.58,0,0,1-1,.1,2.61,2.61,0,0,1-1-.1V84.51a2.3,2.3,0,0,1,1-.11A2.27,2.27,0,0,1,38.15,84.51Z"/><path class="cls-1" d="M120.16,84.51V101a2.58,2.58,0,0,1-1,.1,2.54,2.54,0,0,1-1-.1V84.51a2.23,2.23,0,0,1,1-.11A2.27,2.27,0,0,1,120.16,84.51Z"/><path class="cls-1" d="M156.33,16.18V5.92A5.92,5.92,0,0,0,150.42,0H5.92A5.92,5.92,0,0,0,0,5.92V95.84a5.92,5.92,0,0,0,5.92,5.91h144.5a5.92,5.92,0,0,0,5.91-5.91V75.12h-1.94V95.84a4,4,0,0,1-4,4H5.92a4,4,0,0,1-4-4V5.92a4,4,0,0,1,4-4h144.5a4,4,0,0,1,4,4V16.18Z"/><path class="cls-1" d="M155.36,85.69H1a1,1,0,1,1,0-1.94H155.36a1,1,0,1,1,0,1.94Z"/><path class="cls-1" d="M105.55,99.81H50.78a1,1,0,0,0-1,1v16.07a1,1,0,0,0,1,1h54.77a1,1,0,0,0,1-1V100.78A1,1,0,0,0,105.55,99.81Zm-1,16.07H51.75V101.75h52.83Z"/><path class="cls-1" d="M114,117.82H42.37a1,1,0,0,1,0-1.94H114a1,1,0,0,1,0,1.94Z"/><path class="cls-1" d="M78.17,87.87A4.86,4.86,0,1,0,83,92.72,4.85,4.85,0,0,0,78.17,87.87Zm0,7.76a2.91,2.91,0,1,1,2.91-2.91A2.91,2.91,0,0,1,78.17,95.63Z"/><path class="cls-2" d="M168,14.83H144.64a5.39,5.39,0,0,0-5.37,5.37V71.12a5.38,5.38,0,0,0,5.37,5.37H168a5.38,5.38,0,0,0,5.37-5.37V20.2A5.39,5.39,0,0,0,168,14.83Zm-5.48,2a.65.65,0,1,1-.65.65A.65.65,0,0,1,162.55,16.79Zm-11.23.65a.48.48,0,0,1,.48-.48h9.07a.48.48,0,0,1,.48.48h0a.48.48,0,0,1-.48.49H151.8a.48.48,0,0,1-.48-.49Zm20.6,54.47c0,1.14-1.77,2.07-2.91,2.07H143.66c-1.14,0-2.91-.93-2.91-2.07V21.09c0-1.14,1.77-2.07,2.91-2.07H169c1.14,0,2.91.93,2.91,2.07Z"/><path class="cls-1" d="M98.79,56.48A7.62,7.62,0,1,0,101,61.85,7.58,7.58,0,0,0,98.79,56.48Z"/><path class="cls-1" d="M129.27,56.48a7.62,7.62,0,1,0,2.22,5.37A7.58,7.58,0,0,0,129.27,56.48Z"/><path class="cls-1" d="M68.3,56.48a7.59,7.59,0,1,0,2.23,5.37A7.54,7.54,0,0,0,68.3,56.48Z"/><path class="cls-1" d="M37.82,56.48a7.59,7.59,0,1,0,2.23,5.37A7.58,7.58,0,0,0,37.82,56.48Z"/><rect class="cls-1" x="24.84" y="18.46" width="106.58" height="18.59"/><rect class="cls-1" x="145.38" y="24.75" width="22.29" height="17.37"/><path class="cls-1" d="M165.58,47.47a3.38,3.38,0,0,0-2.37-1,3.35,3.35,0,0,0-3.34,3.35,3.35,3.35,0,0,0,3.34,3.34,3.35,3.35,0,0,0,2.37-5.71Z"/><path class="cls-1" d="M152.2,47.47a3.34,3.34,0,0,0-4.73,0,3.34,3.34,0,1,0,5.71,2.37A3.37,3.37,0,0,0,152.2,47.47Z"/><path class="cls-1" d="M165.58,59.89a3.34,3.34,0,0,0-2.37-1,3.34,3.34,0,0,0-2.36,5.71,3.34,3.34,0,0,0,2.36,1,3.33,3.33,0,0,0,3.34-3.35A3.33,3.33,0,0,0,165.58,59.89Z"/><path class="cls-1" d="M152.2,59.89a3.34,3.34,0,1,0-2.37,5.71,3.34,3.34,0,0,0,2.37-5.71Z"/></g></g></svg>