<svg xmlns="http://www.w3.org/2000/svg" viewBox="0 0 105.92 105.92"><defs><style>.cls-1{fill:#16ffff;}</style></defs><g id="Layer_2" data-name="Layer 2"><g id="Layer_1-2" data-name="Layer 1"><path class="cls-1" d="M0,103.64Q3.32,96.43,6.62,89.2c1.32-2.88,2.59-5.78,3.94-8.64A11.66,11.66,0,0,1,24,73.85a20.79,20.79,0,0,1,2.22.7l1.9-3.4c-2.28-2.28-4.5-4.59-6.84-6.78-.48-.45-1.42-.39-2.12-.65a4.54,4.54,0,0,0-4.95,1.1c-2,1.72-4.16,3.19-6.26,4.75-1,.72-1.88.81-2.55.23a2,2,0,0,1-.37-2.45q5.19-13.21,10.36-26.44c.55-1.4,1.06-1.67,2.63-1.57,4,.28,8.05.51,12.07.83a1.65,1.65,0,0,0,1.75-.86A89.82,89.82,0,0,1,46.63,21.94,86.15,86.15,0,0,1,65.1,9.15a.92.92,0,0,1,1.3.26q6,6,12.07,12.07,9,9,17.93,17.91A1.14,1.14,0,0,1,96.66,41,87,87,0,0,1,66.75,74a1.89,1.89,0,0,0-1,2c.32,3.91.54,7.84.81,11.76.13,1.79-.13,2.25-1.78,2.9L39,100.69l-.57.23a1.83,1.83,0,0,1-2.34-.47,1.78,1.78,0,0,1,.15-2.37l3-4c1-1.36,2-2.7,3-4.06.16-.22.42-.51.37-.7-.5-1.91-.17-4-1.87-5.63-2.15-2-4.16-4.12-6.27-6.23l-3.22,1.94c.29,1,.64,1.85.84,2.78a11.38,11.38,0,0,1-5.95,12.7c-5.49,2.7-11.12,5.13-16.69,7.68-2.41,1.1-4.8,2.22-7.2,3.33H0ZM67.27,23.49A15.22,15.22,0,1,0,82.43,38.68,15.24,15.24,0,0,0,67.27,23.49Zm-42.66,54a23,23,0,0,0-4-.37,8.05,8.05,0,0,0-6.89,5q-4,8.67-7.9,17.37c-.12.25-.18.53-.32.93.34-.12.51-.16.66-.23,5.95-2.7,11.91-5.37,17.83-8.14a10.11,10.11,0,0,0,2.86-2.14c2.16-2.26,2.69-6.28,1.25-8.45l-2.05,1.14c-.92.5-1.87,1-2.86.17-.71-.61-.66-1.47.11-2.93C23.67,79.17,24.05,78.48,24.61,77.46ZM42.77,95.28a1.82,1.82,0,0,0,.41,0c6.4-2.5,12.81-5,19.2-7.54a1.23,1.23,0,0,0,.52-1c-.1-2.37-.27-4.74-.42-7.12-.06-.86-.15-1.73-.22-2.61a1.42,1.42,0,0,0-.32.07,124.76,124.76,0,0,1-15.86,7.71c-.56.22-.61.52-.5,1,.23,1,.38,2.1.65,3.13a2.68,2.68,0,0,1-.56,2.5C44.7,92.66,43.78,93.93,42.77,95.28ZM28.88,43.62c-3.14-.2-6.3-.38-9.45-.64A1.19,1.19,0,0,0,18,43.9c-1.78,4.66-3.61,9.3-5.42,13.94l-2,5.14a40.7,40.7,0,0,0,4-2.79,2.56,2.56,0,0,1,2.32-.52c1.07.26,2.16.42,3.23.67.58.14.86,0,1.08-.59.59-1.5,1.2-3,1.9-4.45C25,51.43,26.91,47.6,28.88,43.62Zm.48,32.55.17.16c.33-.18.65-.37,1-.56,5.39-3.26,10.7-6.64,16.19-9.72,2.18-1.21,3.17-2.55,2.8-5a32.67,32.67,0,0,1,0-4.54c-2.84,0-5.52,0-8.21,0a1.3,1.3,0,0,0-1.34.82q-3.72,6.84-7.52,13.65C31.41,72.69,30.37,74.42,29.36,76.17Z"/><path class="cls-1" d="M98.49,36.63,69.07,7.18c2.56-1,4.87-1.92,7.23-2.72A80.94,80.94,0,0,1,103.37,0c2,0,2.53.57,2.54,2.53a82.42,82.42,0,0,1-7,33.62,2.43,2.43,0,0,1-.2.35S98.68,36.54,98.49,36.63Z"/><path class="cls-1" d="M78.9,38.72A11.69,11.69,0,1,1,67.23,27,11.68,11.68,0,0,1,78.9,38.72ZM67.22,47.17a8.56,8.56,0,0,0,5.89-2.37,1.77,1.77,0,0,0,.24-2.42,1.74,1.74,0,0,0-2.41-.3c-.26.17-.49.38-.74.56a4.94,4.94,0,1,1-4.14-8.75,5.08,5.08,0,0,1,4.68,1.27,1.73,1.73,0,0,0,2.57-.11A1.78,1.78,0,0,0,73,32.49a8.47,8.47,0,1,0-5.77,14.68Z"/></g></g></svg>