<svg xmlns="http://www.w3.org/2000/svg" viewBox="0 0 153.57 110.32"><defs><style>.cls-1{fill:#16ffff;}</style></defs><g id="Layer_2" data-name="Layer 2"><g id="Design"><path class="cls-1" d="M109.63,26.63v-5H106.1V27C107.27,26.8,108.44,26.69,109.63,26.63Z"/><path class="cls-1" d="M114.48,21.62v5.06c1.19.08,2.36.2,3.52.38V21.62Z"/><path class="cls-1" d="M114.48,26.68c-.92-.06-1.85-.1-2.78-.1-.69,0-1.38,0-2.07.05-1.19.06-2.36.17-3.53.33a41.92,41.92,0,1,0,33.14,10l-1.35,1.35a1.76,1.76,0,1,1-2.49-2.5l1.08-1.08A41.61,41.61,0,0,0,118,27.06C116.84,26.88,115.67,26.76,114.48,26.68ZM150,68.45A38.34,38.34,0,1,1,111.7,30.11,38.38,38.38,0,0,1,150,68.45Z"/><path class="cls-1" d="M78.53,68.45a1.77,1.77,0,0,0,3.32.83,1.79,1.79,0,0,0,.21-.83,29.64,29.64,0,1,1,32.81,29.47l5.06-8.65,1.86,3a1.76,1.76,0,1,0,3-1.86l-3.4-5.49a1.72,1.72,0,0,0-1.52-.83,1.75,1.75,0,0,0-1.5.87l-1.68,2.86L110.18,99a1.77,1.77,0,0,0,1.52,2.66A33.17,33.17,0,1,0,78.53,68.45Z"/><path class="cls-1" d="M113.46,61.23V45.94a1.76,1.76,0,1,0-3.52,0V61.4a7.38,7.38,0,0,1,2.11-.31A7.17,7.17,0,0,1,113.46,61.23Z"/><path class="cls-1" d="M109.63,21.62h9.73a1.76,1.76,0,0,0,1.77-1.76V9.07a9.08,9.08,0,0,0-18.15,0V19.86a1.76,1.76,0,0,0,1.77,1.76h4.88Zm2.42-18.09a5.55,5.55,0,0,1,5.55,5.54v9H106.51v-9A5.55,5.55,0,0,1,112.05,3.53Z"/><path class="cls-1" d="M135.4,38.3a1.77,1.77,0,0,0,2.49,0L139.24,37l3.3-3.3a7.27,7.27,0,0,1-2.59-2.4l-3.47,3.47L135.4,35.8A1.77,1.77,0,0,0,135.4,38.3Z"/><path class="cls-1" d="M142.54,33.65a7.26,7.26,0,0,0,3.56.93,7.37,7.37,0,1,0-7.36-7.37,7.36,7.36,0,0,0,3.8,6.44Zm-.28-6.44a3.84,3.84,0,1,1,3.84,3.84A3.84,3.84,0,0,1,142.26,27.21Z"/><path class="cls-1" d="M113.46,61.23a7.17,7.17,0,0,0-1.41-.14,7.38,7.38,0,1,0,1.41.14Zm-1.41,11.05a3.83,3.83,0,1,1,3.84-3.83A3.84,3.84,0,0,1,112.05,72.28Z"/><path class="cls-1" d="M58.74,30.11H77.65a1.77,1.77,0,1,0,0-3.53H58.74a1.77,1.77,0,1,0,0,3.53Z"/><path class="cls-1" d="M64.41,55.43H45.49a1.77,1.77,0,0,0,0,3.53H64.41a1.77,1.77,0,0,0,0-3.53Z"/><path class="cls-1" d="M68,83.84a1.76,1.76,0,0,0-1.77-1.76H47.29a1.77,1.77,0,0,0,0,3.53H66.2A1.77,1.77,0,0,0,68,83.84Z"/><path class="cls-1" d="M42.43,30.11h6.13a1.77,1.77,0,0,0,0-3.53H42.43a1.77,1.77,0,1,0,0,3.53Z"/><path class="cls-1" d="M12.43,44.18h53.1a1.77,1.77,0,0,0,0-3.53H12.43a1.77,1.77,0,0,0,0,3.53Z"/><path class="cls-1" d="M1.76,71.18H63.54a1.76,1.76,0,0,0,0-3.52H1.76a1.76,1.76,0,0,0,0,3.52Z"/></g></g></svg>