<svg xmlns="http://www.w3.org/2000/svg" viewBox="0 0 115.38 106.79"><defs><style>.cls-1{fill:#16ffff;}</style></defs><g id="Layer_2" data-name="Layer 2"><g id="Layer_1-2" data-name="Layer 1"><path class="cls-1" d="M33.1,8a10.83,10.83,0,0,1,1.48.84A8.12,8.12,0,0,0,43.4,10c1-.44,2.06-.84,3.06-1.31A7.71,7.71,0,0,0,51,2.28C51.26.47,51.73,0,53.52,0,56.35,0,59.18,0,62,0c1.58,0,2.15.53,2.32,2.08a7.83,7.83,0,0,0,5,6.81l2.85,1.18A7.94,7.94,0,0,0,80.64,9c1.4-1.08,2-1,3.26.18q3,3,6,6c1.13,1.13,1.18,1.85.19,3.1A8,8,0,0,0,89,27c.41,1,.8,2,1.24,2.95a7.75,7.75,0,0,0,6.33,4.7c2.08.29,2.46.71,2.46,2.8v8c0,1.72-.49,2.26-2.16,2.47A7.93,7.93,0,0,0,90.05,53c-.41,1-.82,2-1.21,3a7.85,7.85,0,0,0,1.08,8.12c1.23,1.64,1.2,2.14-.27,3.61-2,2-3.89,3.9-5.85,5.84-1.06,1-1.85,1.11-3,.18A8,8,0,0,0,72,72.59c-1,.43-2,.79-3,1.24a7.73,7.73,0,0,0-4.67,6.47c-.22,1.78-.72,2.26-2.49,2.26H53.25c-1.41,0-2-.55-2.18-2a8,8,0,0,0-5.48-7.11l-2.54-1a7.88,7.88,0,0,0-8.21,1.1c-1.56,1.18-2.13,1.13-3.53-.27l-5.85-5.84c-1.12-1.13-1.17-1.85-.19-3.1a8,8,0,0,0,1.18-8.61l-1.09-2.64a7.94,7.94,0,0,0-6.85-5.18c-1.6-.2-2.11-.76-2.12-2.39,0-2.83,0-5.67,0-8.5,0-1.57.48-2.17,2-2.35a8.15,8.15,0,0,0,7.17-5.75c.3-.82.68-1.62,1-2.44a7.88,7.88,0,0,0-1.14-8c-1.23-1.64-1.19-2.14.28-3.61C27.68,12.91,29.62,11,31.59,9A12.06,12.06,0,0,1,33.1,8ZM57.67,63.57A22.3,22.3,0,1,0,35.42,41.18,22.28,22.28,0,0,0,57.67,63.57Z"/><path class="cls-1" d="M57.73,89.63h48.66a8.57,8.57,0,0,1,1.68,17,15.66,15.66,0,0,1-1.94.11H9.26c-4.68,0-8.06-2.54-9-6.74A8.51,8.51,0,0,1,8.15,89.66c3.09-.09,6.2,0,9.29,0Zm-15,13.57H76c.42,0,.85,0,1.26,0A5.06,5.06,0,0,0,82,98.72a4.94,4.94,0,0,0-3.42-5.23,7.79,7.79,0,0,0-2.26-.29q-33.51,0-67,0a9.42,9.42,0,0,0-1.6.13,4.91,4.91,0,0,0-4,5.43c.33,2.71,2.4,4.43,5.36,4.43Z"/><path class="cls-1" d="M66.05,45.62c-.5.34-1,.7-1.51,1a1.79,1.79,0,0,1-2.54-.4,1.72,1.72,0,0,1,.46-2.51c1.87-1.33,3.76-2.64,5.68-3.89a1.73,1.73,0,0,1,2.68.77c1,2.06,2,4.15,2.88,6.24a1.79,1.79,0,1,1-3.27,1.47c-.22-.4-.4-.82-.61-1.25-.71,1-1.31,2-2,2.89A13.29,13.29,0,0,1,47,49.22c-.81-1.12-.77-2.16.12-2.84S49,46,49.9,47.05c4.4,5.48,12.38,5.19,15.95-.58.13-.22.24-.46.35-.69Z"/><path class="cls-1" d="M45.55,35.75c2.41-4.51,5.89-7.19,10.82-7.67a12.87,12.87,0,0,1,12,5.29c.84,1.08.73,2.16-.2,2.82s-1.87.35-2.67-.66c-4.41-5.52-12.44-5.2-16,.65-.07.13-.13.27-.34.7.69-.47,1.13-.8,1.59-1.08a1.79,1.79,0,1,1,2.09,2.91q-2.72,2-5.49,3.95A1.75,1.75,0,0,1,44.55,42q-1.53-3-3-6.08a1.74,1.74,0,0,1,.83-2.51,1.8,1.8,0,0,1,2.4.94C45.05,34.73,45.26,35.17,45.55,35.75Z"/></g></g></svg>