<svg xmlns="http://www.w3.org/2000/svg" viewBox="0 0 106.69 106.7"><defs><style>.cls-1{fill:#16ffff;}</style></defs><g id="Layer_2" data-name="Layer 2"><g id="Layer_1-2" data-name="Layer 1"><path class="cls-1" d="M96.28,106.7a10.48,10.48,0,0,1-5.16-2.49,9.28,9.28,0,0,1-2.82-9.36A1.61,1.61,0,0,0,88,93.17q-2-2.25-3.89-4.62a2,2,0,0,0-1.85-.83c-2.36,0-4.71,0-7.13,0V81.52c3.39,0,6.76-.09,10.11.06a3.74,3.74,0,0,1,2.22,1.34c1.8,2,3.47,4,5.22,6.12a9,9,0,0,1,7.58-.8,9.2,9.2,0,0,1,6.29,7.14c0,.23.12.46.18.69v2.09a3.86,3.86,0,0,0-.16.48,9.71,9.71,0,0,1-3.28,5.81,11.17,11.17,0,0,1-4.89,2.25Z"/><path class="cls-1" d="M106.69,48.15a11.39,11.39,0,0,1-2.21,5,9.2,9.2,0,0,1-10,2.85,1.48,1.48,0,0,0-1.8.39c-1.71,1.73-3.52,3.35-5.25,5.06a4.27,4.27,0,0,1-3.25,1.33c-3,0-6,0-9.12,0V56.49c2.37,0,4.73-.05,7.07,0a3,3,0,0,0,2.46-1c1.18-1.23,2.43-2.39,3.69-3.53a1.13,1.13,0,0,0,.34-1.49,8.83,8.83,0,0,1,1.93-9.82,8.74,8.74,0,0,1,9.13-2.56,9.05,9.05,0,0,1,6.81,7.37c0,.2.11.39.17.59Z"/><path class="cls-1" d="M106.69,73.15a11.56,11.56,0,0,1-2.21,5A9.29,9.29,0,0,1,89,76.25a1.56,1.56,0,0,0-1.72-1c-3.67,0-7.35,0-11,0H75.08V69h1.07c3.86,0,7.71,0,11.56,0a1,1,0,0,0,1.11-.66,9.31,9.31,0,0,1,17.72,2.35,3,3,0,0,0,.15.38Z"/><path class="cls-1" d="M34.37,44H59a9.43,9.43,0,0,1,8,3.8,9.32,9.32,0,0,1,1.87,5.73c0,12.4,0,24.79,0,37.19a9.28,9.28,0,0,1-9.5,9.51q-24.84.07-49.68,0A9.3,9.3,0,0,1,0,90.65Q0,72.11,0,53.57C.05,48,4.14,44,9.79,44Q22.08,44,34.37,44Zm3.15,36c0-1.42,0-2.84,0-4.26a1.38,1.38,0,0,1,1-1.55,9.28,9.28,0,0,0,3.66-13.62,9.36,9.36,0,0,0-17.08,4.79,9.25,9.25,0,0,0,5.47,8.93,1.14,1.14,0,0,1,.77,1.24c0,3,0,5.91,0,8.86a3.13,3.13,0,1,0,6.24,0C37.54,82.94,37.52,81.48,37.52,80Z"/><path class="cls-1" d="M9.21,37.66c.19-5.66,0-11.28.67-16.8C10.76,13.66,14.69,8,20.77,4.13a24.7,24.7,0,0,1,32.52,4.6,24.2,24.2,0,0,1,6.09,16.1c.06,4.1,0,8.19,0,12.29,0,.17,0,.33,0,.56H46.9V36.61c0-3.93,0-7.85,0-11.77a12.48,12.48,0,0,0-25-.27c-.09,4,0,7.92,0,11.88,0,.38,0,.75,0,1.21Z"/><path class="cls-1" d="M34.48,62.74a3.12,3.12,0,1,1-3.2,3A3.15,3.15,0,0,1,34.48,62.74Z"/></g></g></svg>