<svg xmlns="http://www.w3.org/2000/svg" viewBox="0 0 127.23 124.63"><defs><style>.cls-1{fill:#16ffff;}</style></defs><g id="Layer_2" data-name="Layer 2"><g id="Layer_2-2" data-name="Layer 2"><path class="cls-1" d="M0,46.66H15.93c-.17,3.06.5,6.12-.46,9.08A7.78,7.78,0,0,1,8,61.08,7.94,7.94,0,0,1,.45,55.73C.32,55.35.15,55,0,54.61Z"/><path class="cls-1" d="M127.23,54.36A8.77,8.77,0,0,1,124,59.5a7.64,7.64,0,0,1-8.21.78,7.53,7.53,0,0,1-4.48-6.91c-.07-2.18,0-4.37,0-6.71h15.93Z"/><path class="cls-1" d="M35.82,58.34a10.77,10.77,0,0,0,18.58,0c2.19,3.37,5.2,5.33,9.26,5.32s7.07-1.95,9.24-5.34c4.15,6.82,13.78,7.42,18.6,0,2.18,3.37,5.19,5.31,9.24,5.3s7-1.91,9.34-5.5a6.31,6.31,0,0,0,.28.61,10.42,10.42,0,0,0,6,4.48c.65.18.86.43.86,1.09q0,27.21,0,54.41a3.73,3.73,0,0,1-.08.56H106.84v-1.45c0-13.58-.06-27.16,0-40.75,0-3.38-2-6.25-6.21-6.17-8.07.17-16.15,0-24.23,0-4,0-6,2-6,6v42.3H10.11v-1.39q0-26.58,0-53.17c0-.91.16-1.37,1.15-1.64a10.28,10.28,0,0,0,6-4.85c2.2,3.41,5.21,5.37,9.26,5.38S33.63,61.71,35.82,58.34ZM41.57,71c-5.17,0-10.35,0-15.52,0-3.55,0-5.63,2.12-5.64,5.65q0,10.74,0,21.48c0,3.6,2.11,5.74,5.69,5.74q15.4,0,30.79,0c3.69,0,5.74-2.08,5.74-5.79q0-10.55,0-21.1,0-6-5.91-6C51.67,70.94,46.62,71,41.57,71Z"/><path class="cls-1" d="M26.22,22.1c0-.38-.07-.71-.07-1,0-3.89,0-7.78,0-11.67A9.1,9.1,0,0,1,35.58,0Q63,0,90.34,0c5.17,0,9.07,3.41,9.37,8.5.25,4.25.08,8.52.1,12.78,0,.24,0,.48-.08.81Zm36.64-9.67h15.9c.41,0,.91.11,1.21-.08s1-.77,1-1.18-.52-.92-.93-1.23c-.25-.18-.72-.07-1.1-.07H47a8.36,8.36,0,0,0-.87,0c-.78.09-1.33.55-1.15,1.3.11.47.67.9,1.12,1.19.27.18.73.06,1.1.06Z"/><path class="cls-1" d="M104.14,119.31H73V77c0-2.67.83-3.51,3.47-3.51H101c2.34,0,3.24.88,3.24,3.22q0,20.73,0,41.47C104.2,118.55,104.16,118.87,104.14,119.31ZM76.48,97.79A1.48,1.48,0,0,0,78,99.36a1.54,1.54,0,1,0,.16-3.07C77.17,96.24,76.62,96.78,76.48,97.79Z"/><path class="cls-1" d="M63.69,122h56.89l1.86,0c.9,0,1.6.32,1.58,1.33s-.76,1.27-1.64,1.28H5.5c-.29,0-.58,0-.87,0-.8-.06-1.37-.44-1.39-1.29S3.84,122,4.69,122c.38,0,.75,0,1.12,0H63.69Z"/><path class="cls-1" d="M71.51,43.93H55.81c.56-6.38,1.12-12.69,1.68-19H69.77Z"/><path class="cls-1" d="M74.07,43.9l-1.67-19a6.29,6.29,0,0,1,.86-.12c3.48,0,7,0,10.44,0a1.34,1.34,0,0,1,1,.65c1.69,6.09,3.32,12.19,5,18.41Z"/><path class="cls-1" d="M37.52,43.9c1.68-6.23,3.31-12.33,5-18.42.08-.27.45-.65.68-.65,3.88,0,7.76,0,11.7,0-.58,6.42-1.14,12.72-1.71,19.1Z"/><path class="cls-1" d="M107.79,44c-5,0-9.83,0-14.7,0a1,1,0,0,1-.79-.55c-1.67-6.13-3.31-12.27-5-18.6h2.08c3,0,6,0,9.06,0a1.59,1.59,0,0,1,1.23.65c2.74,6,5.43,12.05,8.12,18.08A1.74,1.74,0,0,1,107.79,44Z"/><path class="cls-1" d="M40,24.81,37,35.76c-.65,2.44-1.28,4.88-2,7.3-.1.36-.57.88-.88.89-4.88,0-9.76,0-14.77,0a8.77,8.77,0,0,1,.33-1q3.83-8.61,7.7-17.2c.19-.4.69-.94,1.05-.94C32.22,24.79,36,24.81,40,24.81Z"/><path class="cls-1" d="M24.93,24.81c-.17.48-.27.82-.42,1.15q-3.81,8.55-7.65,17.09c-.17.38-.64.89-1,.9-4.84,0-9.68,0-14.71,0,.27-.49.45-.84.66-1.18,3-4.74,5.93-9.46,8.85-14.22A7.38,7.38,0,0,1,17.6,24.8C20,24.85,22.39,24.81,24.93,24.81Z"/><path class="cls-1" d="M126.21,44c-5.17,0-10,0-14.84,0a1.15,1.15,0,0,1-.8-.59q-4.08-9-8.11-18.11a1.39,1.39,0,0,1,0-.41c2.87,0,5.72-.09,8.56,0a5.71,5.71,0,0,1,4.67,2.51C119.2,32.79,122.6,38.26,126.21,44Z"/><path class="cls-1" d="M37.22,46.69H52.83c0,2.79.34,5.6-.09,8.28-.61,3.84-4.23,6.29-8.18,6.1a7.73,7.73,0,0,1-7.29-6.75A74.41,74.41,0,0,1,37.22,46.69Z"/><path class="cls-1" d="M55.66,46.68h16a62.7,62.7,0,0,1-.47,8.51c-.71,3.86-4.68,6.34-8.61,5.85a8,8,0,0,1-7-7.67C55.62,51.18,55.66,49,55.66,46.68Z"/><path class="cls-1" d="M18.59,46.71H34.26c0,2.8.33,5.6-.08,8.29-.58,3.85-4.47,6.4-8.46,6.06a7.88,7.88,0,0,1-7.11-7.37C18.5,51.39,18.59,49.08,18.59,46.71Z"/><path class="cls-1" d="M90,46.75a63.17,63.17,0,0,1-.06,7.79,7.74,7.74,0,0,1-8.46,6.53,7.91,7.91,0,0,1-7.22-7.53c-.09-2.23,0-4.46,0-6.79Z"/><path class="cls-1" d="M92.89,46.7h15.64a58.26,58.26,0,0,1-.08,8,7.89,7.89,0,0,1-15.5-.2A66.1,66.1,0,0,1,92.89,46.7Z"/><path class="cls-1" d="M41.51,101.3H26.37c-2.43,0-3.34-.89-3.34-3.27q0-10.61,0-21.23c0-2.39.9-3.27,3.33-3.27H56.77c2.35,0,3.31,1,3.31,3.33q0,10.55,0,21.1c0,2.41-1,3.34-3.42,3.34Z"/></g></g></svg>