<svg xmlns="http://www.w3.org/2000/svg" viewBox="0 0 129.02 128.92"><defs><style>.cls-1{fill:#16ffff;}</style></defs><g id="Layer_2" data-name="Layer 2"><g id="Layer_2-2" data-name="Layer 2"><path class="cls-1" d="M77.87,124.48H91.21V72.2c0-2.64.62-3.25,3.28-3.26h16c2.27,0,3,.71,3,3v52.54H120v4.44H13.48v-4.33H20V123c0-5.19,0-10.38,0-15.57,0-2.1.76-2.85,2.84-2.86H39.42c2.09,0,2.85.76,2.86,2.84v17.06H55.62V89.93c0-2.55.65-3.19,3.21-3.19H75c2.17,0,2.91.74,2.91,2.92q0,16.53,0,33.08Z"/><path class="cls-1" d="M71.25,13.34V4.44h50.33c4.73,0,7.44,2.67,7.44,7.37V54.9c0,4.69-2.71,7.37-7.45,7.37H75.64v1.51c0,4.59,0,9.18,0,13.76,0,1.19-.27,2.17-1.53,2.46s-1.86-.53-2.35-1.51c-2.49-5-5-10-7.48-15a1.83,1.83,0,0,0-2-1.21A15.52,15.52,0,0,1,58.43,62a6.46,6.46,0,0,1-5-6.09,43,43,0,0,1,.14-5.18l.38,1.07a8.85,8.85,0,0,0,17.23-2.64c.07-4,0-8,0-12V35.58c.86,0,1.59,0,2.31,0A6.65,6.65,0,0,0,80.07,29c.06-2.91,0-5.83,0-8.75a6.66,6.66,0,0,0-6.92-6.92Zm31.18.06v4.28h22.06V13.4Zm22.08,17.83H102.44v4.28h22.07ZM102.36,53.29h22.12V49H102.36ZM86.76,15.43c0,4.45.14,4.58,4.59,4.58,4.08,0,4.31-.23,4.31-4.31,0-4.45-.13-4.58-4.6-4.58C87,11.12,86.76,11.34,86.76,15.43Zm4.4,22.38c4.35,0,4.5-.15,4.5-4.54,0-4.16-.2-4.36-4.4-4.36-4.36,0-4.5.14-4.5,4.53C86.76,37.61,87,37.81,91.16,37.81Zm-4.4,13.33c0,4.28.18,4.46,4.44,4.46s4.46-.18,4.46-4.44-.18-4.46-4.44-4.46S86.76,46.88,86.76,51.14Z"/><path class="cls-1" d="M53.34,44.44a18.49,18.49,0,0,0-9.74-4.27A28.2,28.2,0,0,0,40.69,40c-6.07,0-12.14,0-18.32,0V13.34h1.44c5.56,0,11.12-.05,16.68,0A18.84,18.84,0,0,0,52.56,9.53c.21-.16.43-.28.78-.51Z"/><path class="cls-1" d="M66.74,26.83c0,7.32,0,14.63,0,22a4.41,4.41,0,0,1-3.32,4.43,4.21,4.21,0,0,1-4.81-1.89,5.45,5.45,0,0,1-.73-2.61q-.06-22,0-44.06A4.43,4.43,0,0,1,62.33,0a4.48,4.48,0,0,1,4.41,4.73C66.76,12.09,66.74,19.46,66.74,26.83Z"/><path class="cls-1" d="M17.76,13.35V39.86c-7.27.89-13.24-.85-16.48-7.61A13.31,13.31,0,0,1,12.9,13.36C14.47,13.31,16.05,13.35,17.76,13.35Z"/><path class="cls-1" d="M31.06,75.56h-8.8V74c0-7,0-14.07,0-21.11a6.59,6.59,0,0,0-1.49-4.48c-1-1.18-1.84-2.43-2.87-3.81H31.06Z"/><path class="cls-1" d="M71.29,17.8c.77,0,1.46,0,2.14,0A2.15,2.15,0,0,1,75.62,20q.07,4.44,0,8.87a2.15,2.15,0,0,1-2.18,2.23c-.68.05-1.37,0-2.15,0Z"/><path class="cls-1" d="M35.67,53.26V49.07c4.19-.61,4.19-.61,4.46-4.63l4.14.28C45.37,48.94,42.47,54.29,35.67,53.26Z"/></g></g></svg>