<svg xmlns="http://www.w3.org/2000/svg" viewBox="0 0 128.67 126.37"><defs><style>.cls-1{fill:#16ffff;}</style></defs><g id="Layer_2" data-name="Layer 2"><g id="Layer_2-2" data-name="Layer 2"><path class="cls-1" d="M21.79,0H88.21c2.75,0,3.3.56,3.3,3.37V21.79H89.86c-4.35,0-7.06,2.7-7.06,7q0,17.36,0,34.71v1.73H78.44V63.82c0-8.72,0-17.43,0-26.14a5.18,5.18,0,0,0-.52-2.19c-1.61-3.35-3.32-6.65-5-10-1.11-2.27-2.81-3.69-5.4-3.69a5.69,5.69,0,0,0-5.39,3.7c-.21.45-.44.89-.66,1.34-1.6,3.25-3.84,6.35-4.64,9.79s-.2,7.21-.2,10.85V65.32H52.3v52.34H3.05c-2.35,0-3-.67-3-3V21.79H1.48c4.45,0,8.9,0,13.34,0,4.24,0,7-2.75,7-7C21.8,9.92,21.79,5.07,21.79,0ZM47.87,100.32h-26v4.2h26ZM6.63,102.47V111h8.56v-8.55ZM39.16,109H21.9v4.19H39.16Zm8.75,0H43.67v4.16h4.24Z"/><path class="cls-1" d="M56.65,78.5h47.93V80q0,19.55,0,39.09c0,4.71-2.61,7.32-7.33,7.32H63.89c-4.61,0-7.24-2.65-7.24-7.28V78.5ZM80.87,93.86C79.73,92.79,79,92,78.14,91.32a9.33,9.33,0,0,0-12.86,1.23,8.88,8.88,0,0,0,1,12.47c3.43,3,6.93,6,10.44,9a5.73,5.73,0,0,0,7.82,0c3.48-2.91,6.94-5.85,10.33-8.85a8.9,8.9,0,0,0,.91-12.78,9.28,9.28,0,0,0-13.08-.66A20.57,20.57,0,0,0,80.87,93.86Z"/><path class="cls-1" d="M108.94,117.77c0-3.13,0-6,0-8.93a1.56,1.56,0,0,1,.63-1C116.67,103.07,120,96.43,119.84,88c0-1.23,0-2.45,0-3.68a3.51,3.51,0,0,0-2.28-3.39,3.37,3.37,0,0,0-3.88.81c-1.49,1.46-2.92,3-4.42,4.53-.16-.22-.29-.32-.29-.41,0-3.58,0-7.17,0-10.75a2,2,0,0,1,.88-1.32c7-4.44,17-.54,18.27,7.69,2.22,14.14-2.13,28.37-17.74,35.75C110,117.39,109.57,117.53,108.94,117.77Z"/><path class="cls-1" d="M87.22,65.28V43.64h12.91V65.28Z"/><path class="cls-1" d="M56.71,74V69.79h47.76V74Z"/><path class="cls-1" d="M103.54,54.48c1.64-1.59,3.15-3,4.53-4.46a3.26,3.26,0,0,0,.83-2c.09-3.35,0-6.71,0-10.06,0-2.49-.62-3.11-3.14-3.13h-1.22V30.65c5.47-.78,8.72,2,8.72,7.37,0,3.86,0,7.71,0,11.57a2.82,2.82,0,0,1-1,2.47c-.83.69-1.57,1.49-2.6,2.47,3.36,2,4.36,4.91,3.39,8.57h-4c0-.11-.13-.19-.12-.26.43-2.41-.62-4.13-2.46-5.57C105.52,56.49,104.66,55.54,103.54,54.48Z"/><path class="cls-1" d="M100.22,39.17H87.15V34.83c0-2.08,0-4.17,0-6.25a2.13,2.13,0,0,1,2.18-2.41q4.35-.08,8.7,0a2.05,2.05,0,0,1,2.16,2.14C100.25,31.89,100.22,35.46,100.22,39.17Z"/><path class="cls-1" d="M65.27,65.3h-4.2v-26h4.2Z"/><path class="cls-1" d="M74,65.3h-4.2v-26H74Z"/><path class="cls-1" d="M3.52,17.43,17.41,3.55c0,3.91.06,7.92,0,11.93a2,2,0,0,1-2.22,1.94C11.27,17.44,7.38,17.43,3.52,17.43Z"/><path class="cls-1" d="M72.71,34.82H62.38c1.37-2.73,2.63-5.37,4-7.93a1.3,1.3,0,0,1,2.39.14C70.11,29.54,71.35,32.09,72.71,34.82Z"/></g></g></svg>