<svg xmlns="http://www.w3.org/2000/svg" viewBox="0 0 124.01 124.02"><defs><style>.cls-1{fill:#16ffff;}</style></defs><g id="Layer_2" data-name="Layer 2"><g id="Layer_2-2" data-name="Layer 2"><path class="cls-1" d="M36.31,44.45c12.69,12.69,25.32,25.31,38,38l-6.64,3.16Q54.8,91.73,41.92,97.85A1.42,1.42,0,0,1,40,97.51q-9.34-9.42-18.76-18.78c-.45-.45-.85-.79-.46-1.59Q28.5,60.91,36.18,44.65A1.74,1.74,0,0,1,36.31,44.45Z"/><path class="cls-1" d="M102.47,0H118c3.9,0,6,2.1,6,6q0,10.17,0,20.34c0,3.85-2.16,6-6,6H86.88c-3.8,0-6-2.16-6-5.93q0-10.23,0-20.46c0-3.89,2.1-6,6-6ZM94.2,16.42h.17c0,1.26-.06,2.53,0,3.79a5.28,5.28,0,0,0,7.26,4.65,85.32,85.32,0,0,0,8.46-4.2c3.25-1.87,3.58-6.72.45-8.72a53.77,53.77,0,0,0-9.34-4.63,5,5,0,0,0-6.59,4A46.25,46.25,0,0,0,94.2,16.42Z"/><path class="cls-1" d="M113.83,120.66a18.28,18.28,0,0,1-1.77-1c-1.86-1.34-3.85-.54-4.23,1.72-.34,2-1,2.6-3,2.61-1.68,0-3.37,0-5,0a2.44,2.44,0,0,1-2.69-2.4c-.39-2.54-2.33-3.33-4.38-1.81a2.46,2.46,0,0,1-3.61-.21q-1.95-1.89-3.83-3.84a2.44,2.44,0,0,1-.18-3.51c1.57-2.13.78-4-1.86-4.42a2.42,2.42,0,0,1-2.32-2.64q0-2.72,0-5.43a2.42,2.42,0,0,1,2.32-2.64c2.59-.44,3.35-2.31,1.82-4.47a2.44,2.44,0,0,1,.19-3.43q1.92-2,3.92-3.93a2.45,2.45,0,0,1,3.52-.19c2.13,1.58,4,.79,4.42-1.85a2.38,2.38,0,0,1,2.5-2.31c1.9,0,3.79,0,5.69,0a2.38,2.38,0,0,1,2.52,2.29c.42,2.7,2.25,3.44,4.51,1.81a2.4,2.4,0,0,1,3.32.15q2.06,2,4,4a2.45,2.45,0,0,1,.2,3.43c-1.6,2.26-.86,4,1.87,4.48A2.35,2.35,0,0,1,124,99.53c0,1.94,0,3.88,0,5.81a2.35,2.35,0,0,1-2.22,2.46c-2.8.45-3.5,2.21-1.84,4.56a2.39,2.39,0,0,1-.14,3.23c-1.36,1.44-2.75,2.84-4.2,4.19A8,8,0,0,1,113.83,120.66Zm-.59-18.18a10.8,10.8,0,1,0-10.92,10.77A10.87,10.87,0,0,0,113.24,102.48Z"/><path class="cls-1" d="M.23,3.55c2.66,2,5.11,3.84,7.57,5.67C11.54,12,15.27,14.84,19,17.61c2.36,1.74,2.69,1.75,5.1,0C29.88,13.3,35.6,9,41.32,4.7l1.51-1.12a10.74,10.74,0,0,1,.22,1.47c0,7.37.07,14.75,0,22.12,0,3.11-2.42,5.18-5.81,5.19H5.91C2.19,32.34,0,30.18,0,26.48Q0,16.06.06,5.63C.06,5,.16,4.41.23,3.55Z"/><path class="cls-1" d="M17.27,82.66l19,19c-.86.84-1.79,1.74-2.71,2.65-2.18,2.16-4.34,4.35-6.53,6.5a8,8,0,0,1-11.83,0c-2.5-2.44-5-4.9-7.41-7.41-3-3.09-3.39-7.68-.58-10.76C10.4,89.13,13.93,85.94,17.27,82.66Z"/><path class="cls-1" d="M38.39.09C32.78,4.33,27.44,8.36,22.08,12.37a1,1,0,0,1-1,.06q-8.06-6-16.06-12S5,.25,4.92.09Z"/><path class="cls-1" d="M30.8,114.78,38,107.6c2.66,2.5,5.48,4.9,8,7.6,1.8,1.94,1.3,5.14-.64,7a5.17,5.17,0,0,1-6.92.36C35.8,120.08,33.36,117.4,30.8,114.78Z"/><path class="cls-1" d="M65.78,65.83l-12.94-13a10.64,10.64,0,0,1,9.78,2.46C65.61,58,67,62.5,65.78,65.83Z"/><path class="cls-1" d="M79.08,42.73a6.71,6.71,0,0,1-.93,1.63c-1.71,1.81-3.47,3.57-5.26,5.29-1.5,1.43-3.07,1.49-4.21.27s-.94-2.74.45-4.13c1.78-1.79,3.56-3.58,5.37-5.35a2.57,2.57,0,0,1,3-.5C78.55,40.4,79,41.26,79.08,42.73Z"/><path class="cls-1" d="M56.63,39.12c0-1.34,0-2.69,0-4a2.58,2.58,0,0,1,2.69-2.71A2.63,2.63,0,0,1,62,35.14c0,2.6,0,5.21,0,7.81a2.72,2.72,0,0,1-2.71,2.87A2.67,2.67,0,0,1,56.64,43C56.6,41.73,56.63,40.42,56.63,39.12Z"/><path class="cls-1" d="M79.46,62c-1.3,0-2.6,0-3.9,0a2.64,2.64,0,0,1-2.74-2.68,2.56,2.56,0,0,1,2.73-2.66q4-.06,7.94,0a2.65,2.65,0,0,1,2.77,2.66A2.73,2.73,0,0,1,83.5,62h-4Z"/><path class="cls-1" d="M107.21,16.16,99.8,19.88v-7.4Z"/><path class="cls-1" d="M102.46,107.81a5.36,5.36,0,1,1,5.35-5.38A5.3,5.3,0,0,1,102.46,107.81Z"/></g></g></svg>