<svg xmlns="http://www.w3.org/2000/svg" viewBox="0 0 106.04 120.18"><defs><style>.cls-1{fill:#16ffff;}</style></defs><g id="Layer_2" data-name="Layer 2"><g id="Layer_2-2" data-name="Layer 2"><path class="cls-1" d="M82.34,0a31.41,31.41,0,0,1,4,1.27c4.6,2.2,6.92,6,7.5,11q1.42,12.29,2.83,24.58Q98.12,49.44,99.6,62q1.35,11.54,2.69,23.06l2.94,25.16c.27,2.23.52,4.47.81,7-2.14-1.9-4.1-3.62-6.05-5.36-1.78-1.58-3.53-3.2-5.35-4.74a2.24,2.24,0,0,1-.85-1.9q0-28.51,0-57a5.83,5.83,0,0,0-.16-1.62,1.93,1.93,0,0,0-2.13-1.47,2,2,0,0,0-1.93,1.73,9,9,0,0,0-.08,1.64q0,28.16,0,56.33a2.7,2.7,0,0,1-1.21,2.42C84.52,110.1,80.77,113.06,77,116c-.36.28-.73.54-1.33,1,.23-1.93.42-3.62.63-5.3Q78.51,94.34,80.73,77q2.42-18.84,4.84-37.68,1.55-12,3.07-24.07c.41-3.21-.29-6.09-2.78-8.31A6.62,6.62,0,0,0,76,7.67a6.62,6.62,0,0,0-1,3.13,2.06,2.06,0,0,0,2,2.29,2.19,2.19,0,0,0,2.23-2,2,2,0,0,1,2.86-1.53,3.89,3.89,0,0,1,2.37,3.62c.26,4-3.65,6.92-7.9,5.92C71.69,18,68.88,12.3,70.73,7.25a10.69,10.69,0,0,1,8-7c.26-.06.51-.16.76-.24Z"/><path class="cls-1" d="M70.37,0a14.32,14.32,0,0,0-1.46,19.2c-.39,0-.72.09-1,.09q-28,0-56,0a8.15,8.15,0,0,1-8.19-8c-.35-5.49,3.13-9.89,8.74-11,.3-.06.6-.17.89-.25Z"/><path class="cls-1" d="M12,23.63h1.65q31.46,0,62.9,0a13.21,13.21,0,0,0,6.83-1.42c-.24,2-.44,3.71-.66,5.45q-1.59,12.45-3.19,24.89L76.1,79.3,73,104.08c-.58,4.53-1.14,9.07-1.74,13.6-.27,2-.91,2.5-3,2.5H2.89c-2.4,0-3.13-.91-2.82-3.27,1.07-8.26,2.11-16.52,3.17-24.77L6.63,65.51,9.81,40.62ZM9.47,111.57c0-.35,0-.5,0-.66.48-3.79,1-7.59,1.44-11.39.2-1.57-.53-2.64-1.8-2.8S6.92,97.38,6.72,99q-.93,6.92-1.8,13.83c-.28,2.23.53,3.12,2.79,3.13H20.14c1.61,0,3.21,0,4.81,0a2.12,2.12,0,0,0,2.26-2.4c-.12-1.21-1-1.9-2.51-1.91-3.44,0-6.89,0-10.33,0Z"/><path class="cls-1" d="M102.83,120.12H78.67l12.88-10Z"/></g></g></svg>