<svg xmlns="http://www.w3.org/2000/svg" viewBox="0 0 123.5 123.5"><defs><style>.cls-1{fill:#16ffff;}</style></defs><g id="Layer_2" data-name="Layer 2"><g id="Layer_2-2" data-name="Layer 2"><path class="cls-1" d="M0,29.19H36.43C27.11,49.19,17.86,69,8.56,89c.46.23.84.43,1.23.61Q40.71,104,71.64,118.39a1.71,1.71,0,0,1,1.22,2c-.09,1,0,2.09,0,3.13H0Z"/><path class="cls-1" d="M123.5,30.82,83.74,116.08,18.16,85.5,57.92,0ZM50.94,40.9l45.9,21.4C101,53.48,105,44.81,109.07,36.07l-45.9-21.4C59.07,23.46,55,32.11,50.94,40.9ZM44.82,54l45.91,21.4,3-6.56L47.88,47.46ZM81.55,95.1,35.65,73.69c-1,2.24-2,4.36-3.06,6.56l45.9,21.4Zm3.06-6.57,3-6.55L41.77,60.57l-3.06,6.56Z"/><path class="cls-1" d="M66.7,24.31,99.47,39.63c-2,4.38-4,8.66-6.12,13.11L60.58,37.43Z"/></g></g></svg>