<svg xmlns="http://www.w3.org/2000/svg" xmlns:xlink="http://www.w3.org/1999/xlink" viewBox="0 0 166.62 150"><defs><style>.cls-1{fill:url(#linear-gradient);}.cls-2{fill:url(#linear-gradient-2);}</style><linearGradient id="linear-gradient" x1="-388.08" y1="371.43" x2="454.58" y2="-90.79" gradientUnits="userSpaceOnUse"><stop offset="0" stop-color="#16ffff"/><stop offset="1" stop-color="#ff18f7"/></linearGradient><linearGradient id="linear-gradient-2" x1="-414.53" y1="323.22" x2="428.14" y2="-139" xlink:href="#linear-gradient"/></defs><g id="Layer_2" data-name="Layer 2"><g id="BG"><path class="cls-1" d="M80.47,105.68v10.95H77.18c-1.39,5.56-2.75,11-4.15,16.61h20.6c-1.38-5.54-2.74-11-4.13-16.55H86.22v-11h80.35c0,2.94.17,5.93-.11,8.88-.07.78-1.49,1.51-2.4,2.07-.43.26-1.13.07-1.71.07H95.24c1.39,5.6,2.75,11,4.14,16.66h10.93c2.94,0,3.82.89,3.83,3.84,0,3.12,0,6.24,0,9.37,0,2.49-1,3.45-3.52,3.45H56.12c-2.61,0-3.58-1-3.6-3.55,0-3.24,0-6.49,0-9.73,0-2.39,1-3.37,3.4-3.38,3.75,0,7.51,0,11.34,0,1.39-5.56,2.75-11,4.16-16.66H4.05c-3.28,0-4-.78-4-4.11v-6.88Z"/><path class="cls-2" d="M.58,0V100h166V0ZM83.4,9.29h28.74V28.73h-9.53V14.34H83.4ZM69,19.22H97.74v9.51H69ZM121.8,34.05c-.13.68-.28,1.36-.38,2Q119.68,47.36,118,58.62l-1.33,8.59H63.44c.16,1.65.32,3.2.48,4.8H121.8v4.81H106.29a7.46,7.46,0,0,1,5.88,6.78,7.21,7.21,0,0,1-4.78,7.21c-.47.16-1,.28-1.45.42H104l-.61-.18a7,7,0,0,1-5.47-5.62,6.82,6.82,0,0,1,3-7.32,16.22,16.22,0,0,1,2.57-1.24H72.43c3.66.88,5.95,3.48,6.11,6.73a7.23,7.23,0,0,1-4.78,7.21c-.48.16-1,.28-1.45.42H70.39l-.61-.18a7,7,0,0,1-5.47-5.62,6.82,6.82,0,0,1,3-7.32,18.55,18.55,0,0,1,2.76-1.33H59.56c-1.6-16-3.2-32-4.81-48H39.84V24H59.11c.33,3.22.64,6.36,1,9.54H121.8Z"/></g></g></svg>