<svg xmlns="http://www.w3.org/2000/svg" viewBox="0 0 65.24 117.86"><defs><style>.cls-1{fill:#16ffff;}</style></defs><g id="Layer_2" data-name="Layer 2"><g id="Design"><path class="cls-1" d="M47.65,8.66a1.18,1.18,0,0,0,1.35-1l1-6.31A1.18,1.18,0,1,0,47.64,1l-1,6.31A1.18,1.18,0,0,0,47.65,8.66Z"/><path class="cls-1" d="M38.72,8.92A1.19,1.19,0,0,0,40.92,8l-2.4-5.92A1.18,1.18,0,1,0,36.33,3Z"/><path class="cls-1" d="M55.33,11.75l5-4a1.19,1.19,0,0,0,.19-1.66,1.2,1.2,0,0,0-1.67-.19l-5,4a1.18,1.18,0,1,0,1.48,1.84Z"/><path class="cls-1" d="M65.22,17.25a1.17,1.17,0,0,0-1.33-1l-6.32.86a1.18,1.18,0,1,0,.32,2.34l6.32-.86A1.18,1.18,0,0,0,65.22,17.25Z"/><path class="cls-1" d="M62.94,27.68l-5.87-2.5a1.19,1.19,0,0,0-.93,2.18L62,29.86a1.18,1.18,0,1,0,.92-2.18Z"/><path class="cls-1" d="M58.58,71a31.91,31.91,0,0,0-5-17.77c-.44-.63-.89-1.24-1.37-1.8-.2-.57-.44-1.09-.67-1.59a26.65,26.65,0,0,1-1.25-3A11.85,11.85,0,0,1,49.69,43c0-.2,0-.41,0-.63a46.06,46.06,0,0,1,.92-6.7c.11-.65.24-1.29.34-1.92h0l3.38,4.63A1.18,1.18,0,1,0,56.26,37L52.5,31.87a1.18,1.18,0,0,0-1.18-.47,20,20,0,0,0,.13-2.17,11.23,11.23,0,0,0-.28-2.61,6.89,6.89,0,0,0-2-3.42,8.83,8.83,0,0,0-3.57-2,10.85,10.85,0,0,0,.61-1.92,5.11,5.11,0,0,0-.68-4C44,13,42.06,11.86,39.77,11.86a10.36,10.36,0,0,0-5.15,1.69h0a1.17,1.17,0,0,0-.46-1.07L29.06,8.62a1.19,1.19,0,0,0-1.43,1.89l5.09,3.85a1.24,1.24,0,0,0,.34.18h0c-.91.61-1.83,1.28-2.8,2S28,18.16,26.78,19a49.72,49.72,0,0,0-8.88,7.57c0-.46-.11-.91-.17-1.37-.68-5.44-1.33-9.62-2.26-12.36C15,11.56,13.74,7.75,9.83,7.75c-1.83,0-4.46.21-6.21,2-2.11,2.19-2,5.45-1.83,10.37.06,1.57.11,3.35.11,5.34A86.18,86.18,0,0,0,3.59,42.3c.29,1.36.59,2.56.92,3.62C3.69,47.63,3,49.36,2.3,51A37.31,37.31,0,0,0,.25,58a8.43,8.43,0,0,0,.16,4c-.71,2.4-.5,4.19.6,5.41A10.06,10.06,0,0,0,2.3,68.58h0a26.08,26.08,0,0,0-.6,5.77C1.7,78,4,81.18,6.48,84.49c2,2.78,4.16,5.64,5.18,9.06.45,1.53.86,3.16,1.29,4.88,1.1,4.43,2.23,9,4.44,12.65a13,13,0,0,0,11.76,6.78,21.12,21.12,0,0,0,4.19-.46,7.17,7.17,0,0,0,3.5-1.77c3.87-.11,9.23-2.72,16.83-8.21,6.46-4.67,5.85-16.09,5.25-27.15C58.75,77.13,58.58,73.89,58.58,71ZM4.27,25.47c0-11-1.83-15.36,5.56-15.36,3.07,0,4.14,4.11,5.56,15.36.14,1.17.29,2.37.42,3.58-.13.17-.26.34-.37.51a35.16,35.16,0,0,0-4.81,5.68,70,70,0,0,0-4.52,7.49A81.64,81.64,0,0,1,4.27,25.47ZM5.7,49c.42-1,.87-1.93,1.36-2.91a72.7,72.7,0,0,1,5.51-9.5,36.31,36.31,0,0,1,3.53-4.36c.38-.4.76-.77,1.13-1.11s.65-.9,1-1.37a45.74,45.74,0,0,1,9.83-8.81c4.74-3.15,8.52-6.72,11.68-6.72,1.39,0,2.68.7,3.86,2.43.72,1,.42,2.75-.67,4.72A23.37,23.37,0,0,1,38.38,27a32,32,0,0,1-4.13,3.25c-2.55,1.69-5.13,3.8-7.59,5.44a26.51,26.51,0,0,1-2.17,4.72,7.75,7.75,0,0,0-3.21-.72,6.85,6.85,0,0,0-2.67.54,6.65,6.65,0,0,0-.77.36,7.74,7.74,0,0,0-1.75,1.25,5.77,5.77,0,0,0-.94,1.11,25,25,0,0,0-3.46,2.67,38.87,38.87,0,0,0-3.28,3.36c-.52.6-1,1.22-1.55,1.85h0A49.85,49.85,0,0,0,3,56.33,51.71,51.71,0,0,1,5.7,49Zm29.23-3.09c0,.78.11,1.59.19,2.4s.21,1.9.35,2.87l-1.58-1.93-.4-.49q-.8-1-1.59-1.92a31.7,31.7,0,0,0-5.36-5.29,31.2,31.2,0,0,0,2.09-4.4c1.06-.72,2.12-1.51,3.17-2.29,1.24-.92,2.53-1.88,3.76-2.69l.87-.61,0,.13a29.83,29.83,0,0,0-1.52,8c0,.73,0,1.53,0,2.39C34.83,43.23,34.85,44.53,34.93,45.91ZM2.76,65.8a2.17,2.17,0,0,1-.38-1.68A9.51,9.51,0,0,1,3,61.71a38.82,38.82,0,0,1,5.82-9.58c.63-.79,1.29-1.57,2-2.3.82-.9,1.66-1.75,2.5-2.51.66-.6,1.3-1.12,1.9-1.58h0a17.57,17.57,0,0,1,1.72-1.14A3.86,3.86,0,0,1,18.31,43a5.29,5.29,0,0,1,.66-.41A4.76,4.76,0,0,1,21.28,42a5.4,5.4,0,0,1,2,.41,9,9,0,0,1,2,1.18,26.57,26.57,0,0,1,4.37,4.29c.52.59,1,1.21,1.55,1.84,1.71,2.08,3.43,4.25,5.17,6.05l.4.4a25.57,25.57,0,0,0,3.09,2.64c3.15,2.26,4.38,2,2.39,4.09-.36.39-.84.86-1.43,1.44l-.26.23a3.92,3.92,0,0,1-2.62.91h-.12c-1.12-1.15-2.24-2.48-3.37-3.85a77.74,77.74,0,0,0-5.88-6.75,17.63,17.63,0,0,0-1.77-1.52,10.1,10.1,0,0,0-1.37-.9,5.67,5.67,0,0,0-.65-.33A6.65,6.65,0,0,0,22,51.44a5.83,5.83,0,0,0-2.07.39,5.23,5.23,0,0,0-.8.37,6.63,6.63,0,0,0-1.56,1.12,4.27,4.27,0,0,0-.82,1,18.84,18.84,0,0,0-1.88,1.3c-.27.2-.53.42-.8.64l-.86.75a44.31,44.31,0,0,0-3.54,3.67l-.88,1.08C7.87,62.87,7.06,64,6.32,65.06c-.3.44-.58.87-.86,1.3v0c-.21.34-.42.66-.61,1A5.59,5.59,0,0,1,3,66.08,3.63,3.63,0,0,1,2.76,65.8Zm49.53,39.7c-7.69,5.55-12.6,7.76-15.67,7.76a6.23,6.23,0,0,1-.77-.05,4.91,4.91,0,0,1-3,1.88,19.15,19.15,0,0,1-3.73.4c-11.47,0-12.42-13.22-15.23-22.62-2-6.74-7.7-11.35-9.38-16a1.16,1.16,0,0,0-.22-1.24.32.32,0,0,1-.05-.1,1.68,1.68,0,0,1,0-.42,5.24,5.24,0,0,1,.21-1.27A17.55,17.55,0,0,1,5.8,70.49L6,70.08c.41-.77.88-1.58,1.41-2.41.68-1.08,1.46-2.19,2.28-3.27.21-.28.43-.55.64-.82a41.58,41.58,0,0,1,4.4-4.77c.35-.32.7-.61,1-.88a.48.48,0,0,1,.11-.09,17.28,17.28,0,0,1,2.29-1.6,1.16,1.16,0,0,0,.49-.54,2.07,2.07,0,0,1,.5-.68s0,0,0,0a4.48,4.48,0,0,1,1-.71A3.51,3.51,0,0,1,22,53.81a4.18,4.18,0,0,1,1.53.31l0,0a8.46,8.46,0,0,1,2,1.22c.32.24.64.5,1,.8a52,52,0,0,1,4.93,5.48c.59.72,1.18,1.45,1.78,2.17,1.12,1.35,2.26,2.67,3.43,3.83a1.42,1.42,0,0,1,.12.13,26.07,26.07,0,0,0,4.79,3.73c.44.29.81.5,1,.66a7.56,7.56,0,0,1-.64.71q-.48.51-1.26,1.26a2.57,2.57,0,0,1-.88.59,3.12,3.12,0,0,1-1.16.21,7.57,7.57,0,0,1-3.53-1.14A25.62,25.62,0,0,1,30,69.69c-1.69-1.68-3.68-3.44-5.52-5.18a1.21,1.21,0,0,0-.86-.33,1.19,1.19,0,0,0-.83.39,33,33,0,0,1-2.37,2.36A1.18,1.18,0,0,0,22,68.69c.63-.57,1.2-1.12,1.71-1.66,1.62,1.5,3.26,3,4.63,4.34A27.35,27.35,0,0,0,34,75.84a9.58,9.58,0,0,0,4.69,1.45,5.48,5.48,0,0,0,2-.38,5,5,0,0,0,1.66-1.09c.84-.82,1.44-1.42,1.9-1.95a4.34,4.34,0,0,0,.57-.8,2.78,2.78,0,0,0,.21-.46,2.12,2.12,0,0,0,.08-.57,1.67,1.67,0,0,0-.09-.55,2,2,0,0,0-.48-.77,5.19,5.19,0,0,0-1-.79c-.58-.36-1.28-.77-2.14-1.39-.41-.29-.84-.61-1.31-1a6,6,0,0,0,2.33-1.39l.12-.1c.49-.48.92-.9,1.31-1.3,1.27-1.33,1.93-2.32,1.78-3.65-.17-1.57-1.38-2.31-2.55-3a23.29,23.29,0,0,1-4.51-3.49c-.29-1.18-.52-2.39-.7-3.6-.16-1-.28-2.08-.38-3.08-.07-.81-.13-1.6-.17-2.37-.06-1.23-.09-2.41-.09-3.49,0-.82,0-1.6,0-2.29a29.12,29.12,0,0,1,3.08-11.36,26.66,26.66,0,0,0,4.22-5,8.4,8.4,0,0,1,2.29.95,4.43,4.43,0,0,1,1.76,2,7.17,7.17,0,0,1,.51,2.9,35,35,0,0,1-.79,6,50.82,50.82,0,0,0-1,7c0,.25,0,.5,0,.73a14.28,14.28,0,0,0,.55,4.08c0,.19.11.37.17.54a15.73,15.73,0,0,0,.7,1.78c.47,1.06.93,2,1.27,2.9a1.83,1.83,0,0,1,.08.25,8.55,8.55,0,0,1,.48,2.88A14.78,14.78,0,0,1,50,59.22a1.18,1.18,0,1,0,2.29.61,20.37,20.37,0,0,0,.58-3.16A30.81,30.81,0,0,1,56.22,71C56.22,83.78,59.36,100.4,52.29,105.5Z"/><path class="cls-1" d="M27.43,73.4A18.8,18.8,0,0,0,20,71.54a12.24,12.24,0,0,0-2.71-.31,1.18,1.18,0,1,0,0,2.36,9.91,9.91,0,0,1,1.72.15,1.08,1.08,0,0,0,.56.16h.14a11.12,11.12,0,0,1,7.35,6.15A9.76,9.76,0,0,1,28,84a1.18,1.18,0,1,0,2.36,0,12.05,12.05,0,0,0-1.06-4.93,13.42,13.42,0,0,0-2-3.11,14.06,14.06,0,0,1,3,2.19,9.12,9.12,0,0,1,1.89,2.5,6.2,6.2,0,0,1,.68,2.78,1.18,1.18,0,1,0,2.36,0,9,9,0,0,0-1.58-5A15.38,15.38,0,0,0,27.43,73.4Z"/></g></g></svg>