<svg xmlns="http://www.w3.org/2000/svg" viewBox="0 0 129.86 132.05"><defs><style>.cls-1{fill:#16ffff;}</style></defs><g id="Layer_2" data-name="Layer 2"><g id="Lines"><path class="cls-1" d="M107.59,73.58c-.33,3.77-.44,7.37-1,10.91A41.05,41.05,0,0,1,97,104.86a2,2,0,0,0-.46,2,27,27,0,0,1,.73,5.19c.09,6.4,0,12.8,0,19.2,0,.24,0,.48,0,.8H25v-1.28c0-6-.07-12,0-17.94,0-2.11.53-4.21.76-6.32a2,2,0,0,0-.26-1.32A43.33,43.33,0,0,1,15,75.15c0-.49,0-1,0-1.56-2-.34-4-.67-5.89-1-4.3-.69-7-4.38-5.95-8.25C3.8,61.85,5.49,60.1,8,60a76.67,76.67,0,0,1,12.77.1c6.14.7,10.13,5.64,10.22,11.87a32.5,32.5,0,0,0,6.76,19.55,1.68,1.68,0,0,0,2.06.68c3.18-.7,6.4-1.19,9.62-1.69,2-.31,1.86-.3,2.52-2.16s.48-3.16-1.35-4.43a13.31,13.31,0,0,1-4.74-7.07,1.12,1.12,0,0,0-1.19-1,8,8,0,0,1-7.33-5.71,7.84,7.84,0,0,1,3-8.67,1.69,1.69,0,0,0,.73-1.68,18.57,18.57,0,0,1,3.82-13.06,17.61,17.61,0,0,1,14-7c3.09-.06,6.18-.22,9.22.66a18.13,18.13,0,0,1,13.13,17.2,1.53,1.53,0,0,1,0,.37,4.61,4.61,0,0,0,1.71,4.41,7.11,7.11,0,0,1,1.76,8.29,7.68,7.68,0,0,1-6.82,5.13c-.87.09-1.28.28-1.57,1.17a15.18,15.18,0,0,1-5.87,7.91,1.2,1.2,0,0,0-.57,1.53c1,3.79.94,3.73,4.8,4.28,2.8.41,5.58,1,8.37,1.52a1.37,1.37,0,0,0,1.1-.38A31.4,31.4,0,0,0,91,75.58c.23-1.94.17-3.93.48-5.86a11.76,11.76,0,0,1,11.45-9.87c3.31-.06,6.61,0,9.92,0,3.52,0,6.12,2.16,6.48,5.36a6.64,6.64,0,0,1-5,7.16c-2,.47-4,.71-6,1.06C108,73.46,107.72,73.55,107.59,73.58Zm-22.36,36.5v18h8v-.91c0-5,0-10,0-15.05A17,17,0,0,0,79.9,95.55a1.44,1.44,0,0,0-1.82.77c-4.78,7.85-9.61,15.67-14.42,23.5a2.26,2.26,0,0,0-.48,1c0,2.4,0,4.81,0,7.18h18.1V110.08Zm-26.1,18c0-2.46,0-4.8,0-7.13a2.29,2.29,0,0,0-.47-1.12C53.83,112,49,104.2,44.21,96.35a1.48,1.48,0,0,0-1.92-.77A17,17,0,0,0,29,112.16c0,5,0,10,0,14.92a8.52,8.52,0,0,0,.08.92h8V110.12h4v18h18ZM77.2,59.7c0-.7,0-1.33,0-2A13.79,13.79,0,0,0,66.29,44.21a32.71,32.71,0,0,0-8.1-.37,14.05,14.05,0,0,0-13,16c2.82,0,5.65,0,8.48,0a11.45,11.45,0,0,0,9.86-5.24l1.66-2.46C67.83,57,71.09,60.59,77.2,59.7ZM49.12,63.76c0,3.14-.12,6.06,0,9A12.05,12.05,0,0,0,60.25,83.9c5.94.42,11.63-3.62,12.57-9.43.57-3.5.36-7.14.49-10.74A13.83,13.83,0,0,1,65,59.12C60.63,63.75,55.08,64.21,49.12,63.76ZM19.29,81.57a38.47,38.47,0,0,0,8.27,19.76L34.67,94A36.86,36.86,0,0,1,28,80.11Zm83.7,0-8.73-1.45A36.89,36.89,0,0,1,87.63,94l7.08,7.35A38.57,38.57,0,0,0,103,81.56Zm.17-4.16c0-.07.07-.1.07-.14,0-1.25,0-2.5.08-3.75a4,4,0,0,1,3-3.78c.64-.18,1.31-.25,2-.37,1.73-.3,3.47-.53,5.18-.93a2.61,2.61,0,0,0,1.93-2.86c-.19-1.13-1-1.72-2.53-1.72-3.26,0-6.52,0-9.78,0a7.45,7.45,0,0,0-7.25,5.36,50.18,50.18,0,0,0-.85,6.91l7.52,1.26A4.34,4.34,0,0,0,103.16,77.4ZM27.23,76.17c-.09-1.88-.1-3.6-.28-5.3a7.82,7.82,0,0,0-7.6-7c-3.39-.06-6.78,0-10.16,0a2.07,2.07,0,0,0-1.8,3.39,3.89,3.89,0,0,0,2.13,1.31c1.91.46,3.87.68,5.8,1A4,4,0,0,1,19,73.92c0,1.16,0,2.32,0,3.61ZM65.89,87.23a16.47,16.47,0,0,1-9.51,0c-.31,1.22-.62,2.34-.87,3.47a.9.9,0,0,0,.26.73c1.77,1.36,3.58,2.69,5.38,4,1.79-1.34,3.49-2.6,5.18-3.9.22-.17.5-.54.45-.76C66.54,89.63,66.21,88.47,65.89,87.23ZM57.54,97.8c-1.65-1.24-3.11-2.35-4.6-3.43a1.2,1.2,0,0,0-.8-.21c-1.35.16-2.7.37-4.22.58l4,6.46Zm7.2,0,5.66,3.39,4-6.45c-1.54-.22-2.89-.43-4.25-.58a1.21,1.21,0,0,0-.8.23C67.83,95.47,66.37,96.58,64.74,97.8ZM45,63.91a3.94,3.94,0,1,0,0,7.88Zm32.23,7.88a3.94,3.94,0,1,0,0-7.87Zm-16,34.83H61A30.23,30.23,0,0,1,59.82,111c-.91,2.1.11,3.53,1.43,5.23.6-1.19,1.64-2.29,1.55-3.28A41.87,41.87,0,0,0,61.29,106.62Zm-7.3-2,2.37,3.83L58,102.24Zm11.94,3.83,2.36-3.84-4-2.38Z"/><path class="cls-1" d="M29.32,21.89a14.06,14.06,0,0,1-2.8,7.66c-.26.36-.53.7-.8,1-3.06,3.95-5.19,8.17-4.84,13.42a6.07,6.07,0,0,1-5.68,6.24A6.31,6.31,0,0,1,8.48,45.1a5.13,5.13,0,0,1-.09-1.56c.4-3.86-1.05-7.18-3-10.34C4.65,32,3.75,30.84,2.9,29.68A14.64,14.64,0,0,1,19.07,7C25.2,9,29.32,14.62,29.32,21.89ZM16.76,37.81c.34-.19.46-.22.47-.28,1.27-4.06,3.71-7.43,6.13-10.86a9.62,9.62,0,0,0,.56-10.53,9.92,9.92,0,0,0-9.08-5.63,9.9,9.9,0,0,0-9.45,5.66,9.85,9.85,0,0,0,.94,11.07,34.61,34.61,0,0,1,5.53,9.86c.07.23.3.41.7.94,0-2.24,0-4.06,0-5.87a1.48,1.48,0,0,0-.93-1.6A6.14,6.14,0,0,1,8.46,24.1a6.28,6.28,0,0,1,12.21-.75,6.27,6.27,0,0,1-3,7.27c-.36.21-.87.6-.88.92C16.72,33.56,16.76,35.59,16.76,37.81Zm-4.17,4.13c.05,1.46-.51,3,1.09,3.81a2.61,2.61,0,0,0,2.15-.12c1.38-.87.87-2.34.86-3.69Zm4.15-16.77a2.09,2.09,0,1,0-2.11,2A2.11,2.11,0,0,0,16.74,25.17Z"/><path class="cls-1" d="M129.84,35c-1.47.48-2.86,1-4.28,1.39-1,.29-1.19.79-.69,1.7s1,2.13,1.57,3.16a1.13,1.13,0,0,1-.23,1.59c-1.28,1.19-2.52,2.42-3.7,3.7a1.18,1.18,0,0,1-1.7.24c-1-.55-2-1-3-1.54s-1.49-.41-1.8.71c-.39,1.42-.9,2.82-1.38,4.28-2.22,0-4.4,0-6.58,0a1.25,1.25,0,0,1-.86-.7c-.47-1.21-.87-2.46-1.24-3.71-.25-.83-.65-1-1.44-.62a30.53,30.53,0,0,1-3.42,1.62,1.6,1.6,0,0,1-1.42-.18c-1.36-1.22-2.65-2.53-3.89-3.88a1.49,1.49,0,0,1-.21-1.3,30.59,30.59,0,0,1,1.65-3.41c.51-.9.24-1.33-.69-1.6-1.45-.44-2.88-.94-4.33-1.42V27.8c1.47-.49,2.94-1,4.43-1.46.85-.25,1-.67.59-1.44-.55-1-1-2.14-1.56-3.16a1.32,1.32,0,0,1,.28-1.92c1.26-1.13,2.45-2.35,3.61-3.59a1.12,1.12,0,0,1,1.59-.25c1,.57,2.12,1,3.14,1.6s1.42.37,1.71-.67a35,35,0,0,1,1.18-3.59,1.35,1.35,0,0,1,1-.71c2.14-.07,4.27,0,6.48,0,.47,1.44,1,2.83,1.38,4.25.28,1,.7,1.29,1.67.75s2.21-1,3.29-1.61a1,1,0,0,1,1.47.22c1.23,1.3,2.49,2.57,3.8,3.79a1.12,1.12,0,0,1,.2,1.59c-.6,1.11-1.13,2.26-1.71,3.38-.37.71-.2,1.12.57,1.37,1.12.36,2.22.78,3.32,1.18a1.75,1.75,0,0,1,1.26,1.9C129.81,31.26,129.84,33.13,129.84,35Zm-8-13.65c-.42-.17-.89-.54-1.28-.46a8.7,8.7,0,0,0-1.77.8A4.81,4.81,0,0,1,112.32,19a9.82,9.82,0,0,0-.52-1.47,1.47,1.47,0,0,0-.85-.71c-.22,0-.6.37-.75.65a16.78,16.78,0,0,0-.56,1.6,4.8,4.8,0,0,1-6.34,2.69,17.86,17.86,0,0,0-1.66-.78,1.11,1.11,0,0,0-1,.13,1.2,1.2,0,0,0-.12,1,8.47,8.47,0,0,0,.62,1.29,4.84,4.84,0,0,1-2.78,6.81c-.72.28-2,0-2,1.22s1.26,1,2,1.23a5,5,0,0,1,3.28,3.76c.42,1.6-.38,2.87-1,4.21-.15.32-.18,1,0,1.09a1.76,1.76,0,0,0,1.21.09,4.58,4.58,0,0,0,1-.5,4.82,4.82,0,0,1,6.88,2.81c.27.71,0,2.07,1.25,1.89.48-.06,1-1.14,1.18-1.84a4.9,4.9,0,0,1,3.57-3.31c1.53-.46,2.79.2,4.11.8a4.47,4.47,0,0,0,1.48.15,3.71,3.71,0,0,0-.16-1.48c-1.2-2-1.44-4.15.15-5.95.85-1,2.32-1.38,3.49-2.09.32-.19.75-.53.76-.81s-.4-.65-.71-.84a5.56,5.56,0,0,0-1.22-.45,4.74,4.74,0,0,1-2.87-6.73C121.08,22.84,121.38,22.25,121.8,21.39Z"/><path class="cls-1" d="M54.45,21c-1.48,0-2.79,0-4.09,0a4.16,4.16,0,0,1-4.28-4.31q0-6.15,0-12.3A4.13,4.13,0,0,1,50.35,0Q64.94,0,79.52,0a4.1,4.1,0,0,1,4.24,4.22q0,6.21,0,12.43a4.14,4.14,0,0,1-4.32,4.27c-4,0-8,0-12,0a1.62,1.62,0,0,0-1.76,1.12c-.67,1.51-1.46,3-2.22,4.44a4.69,4.69,0,0,1-9-2.13C54.44,23.28,54.45,22.2,54.45,21Zm4.19-4.22c0,2.53,0,4.88,0,7.23a3.6,3.6,0,0,0,.42,1.09c.27-.26.62-.46.77-.77,1.12-2.17,2.22-4.35,3.27-6.55a1.47,1.47,0,0,1,1.58-1c2.4.06,4.8,0,7.2,0h7.6V4.29H50.32V16.73Z"/><path class="cls-1" d="M117.27,31.36A6.28,6.28,0,1,1,111,25.14,6.3,6.3,0,0,1,117.27,31.36Zm-4.19.1a2.09,2.09,0,1,0-2.12,2A2.1,2.1,0,0,0,113.08,31.46Z"/><path class="cls-1" d="M54.51,12.5v-4h4.05v4Z"/><path class="cls-1" d="M67,12.52h-4V8.46h4Z"/><path class="cls-1" d="M71.29,8.44h4v4h-4Z"/></g></g></svg>