<svg xmlns="http://www.w3.org/2000/svg" xmlns:xlink="http://www.w3.org/1999/xlink" viewBox="0 0 166.62 150"><defs><style>.cls-1{fill:url(#linear-gradient);}.cls-2{fill:url(#linear-gradient-2);}</style><linearGradient id="linear-gradient" x1="-10.14" y1="164.13" x2="832.52" y2="-298.1" gradientUnits="userSpaceOnUse"><stop offset="0" stop-color="#16ffff"/><stop offset="1" stop-color="#ff18f7"/></linearGradient><linearGradient id="linear-gradient-2" x1="-36.59" y1="115.92" x2="806.08" y2="-346.31" xlink:href="#linear-gradient"/></defs><g id="Layer_2" data-name="Layer 2"><g id="BG"><path class="cls-1" d="M80.47,105.68v10.95H77.18c-1.39,5.56-2.75,11-4.15,16.61h20.6c-1.38-5.54-2.74-11-4.13-16.55H86.22v-11h80.35c0,2.94.17,5.93-.11,8.88-.07.78-1.49,1.51-2.4,2.07-.43.26-1.13.07-1.71.07H95.24c1.39,5.6,2.75,11,4.14,16.66h10.93c2.94,0,3.82.89,3.83,3.84,0,3.12,0,6.24,0,9.37,0,2.49-1,3.45-3.52,3.45H56.12c-2.61,0-3.58-1-3.6-3.55,0-3.24,0-6.49,0-9.73,0-2.39,1-3.37,3.4-3.38,3.75,0,7.51,0,11.34,0,1.39-5.56,2.75-11,4.16-16.66H4.05c-3.28,0-4-.78-4-4.11v-6.88Z"/><path class="cls-2" d="M.58,0V100h166V0ZM109.24,18.63a10.16,10.16,0,0,0,6.87-4.95A39.19,39.19,0,0,1,118.86,10c.36.45.7.86,1,1.27,1.31,1.72,2.59,3.46,3.94,5.15a3.15,3.15,0,0,0,1.27.93c2.5.92,5,1.77,7.67,2.7-1.17,1.69-2.19,3.38-3.42,4.89a7.38,7.38,0,0,0-1.76,5.4c.13,2,0,3.93,0,6.07-2.68-.8-5.09-1.48-7.48-2.25a3.68,3.68,0,0,0-2.43,0c-2.42.77-4.86,1.47-7.49,2.25,0-1.65-.1-3.19,0-4.72A9.87,9.87,0,0,0,107.74,24,41.73,41.73,0,0,1,105,20.1,38.77,38.77,0,0,1,109.24,18.63Zm-34-.55A7.16,7.16,0,0,0,79.58,15c1.1-1.69,2.43-3.24,3.75-5,1.64,2.15,3.17,4.22,4.78,6.23a4.23,4.23,0,0,0,1.64,1.2c2.16.83,4.37,1.56,6.55,2.33.27.09.52.21.89.36-1.09,1.57-2,3.16-3.2,4.56a8.17,8.17,0,0,0-2,6.21c.15,1.78,0,3.59,0,5.55-2.68-.81-5.12-1.51-7.53-2.28a3.61,3.61,0,0,0-2.34,0c-2.41.77-4.85,1.47-7.55,2.28,0-2-.1-3.93,0-5.82a7.67,7.67,0,0,0-1.79-5.69c-1.23-1.48-2.22-3.14-3.4-4.84C71.46,19.39,73.33,18.62,75.26,18.08ZM93.54,54.5A10.21,10.21,0,1,1,83.36,44.27,10.25,10.25,0,0,1,93.54,54.5ZM41.4,17.43a3.57,3.57,0,0,0,1.51-1.08c1.65-2.06,3.22-4.18,4.88-6.35,1.63,2.15,3.19,4.24,4.81,6.28a3.8,3.8,0,0,0,1.57,1.14c2.43.92,4.9,1.75,7.49,2.66a30.48,30.48,0,0,1-2.19,3.14,11.74,11.74,0,0,0-3,9.47c.11,1.18,0,2.38,0,3.72A48.93,48.93,0,0,1,51.62,35,9.37,9.37,0,0,0,44,35a50,50,0,0,1-5,1.51c0-2.81,0-5.48,0-8.14a3.12,3.12,0,0,0-.51-1.59c-1.46-2.19-3-4.35-4.57-6.64C36.5,19.18,39,18.35,41.4,17.43Zm16,60.92c-.28,3.14-.31,6.3-.46,9.53a5,5,0,0,1-.66.08H34.35a5.7,5.7,0,0,1-.58-.06V80.15c.27-1.22.47-2.46.81-3.65A20.3,20.3,0,0,1,42.5,65.43a16.1,16.1,0,0,0,18,3.77A24.44,24.44,0,0,0,57.41,78.35ZM54,64.65a10.19,10.19,0,1,1,10.34-10A10.18,10.18,0,0,1,54,64.65ZM63,87.88c0-2.21-.08-4.43,0-6.63A20,20,0,0,1,70.92,66c.22-.18.47-.33.7-.49a16.24,16.24,0,0,0,23.45,0A19.23,19.23,0,0,1,103.2,77.8a94.65,94.65,0,0,1,.73,10.08Zm39.32-33.51a10.19,10.19,0,1,1,10.13,10.29A10.19,10.19,0,0,1,102.29,54.37Zm30.6,33.53a2.47,2.47,0,0,1-.38,0H110.17c-.15,0-.31,0-.63-.07.22-6.4.15-12.74-3.44-18.65,6.93,2.45,12.88,1.19,18.09-3.78a18.9,18.9,0,0,1,4.48,4.27,20,20,0,0,1,4.05,9.89,3.62,3.62,0,0,0,.17.53Z"/></g></g></svg>