<svg xmlns="http://www.w3.org/2000/svg" viewBox="0 0 105.69 106.07"><defs><style>.cls-1{fill:#16ffff;}</style></defs><g id="Layer_2" data-name="Layer 2"><g id="Layer_1-2" data-name="Layer 1"><path class="cls-1" d="M20.11,106.07c-1.8-.83-2.33-2.25-2.31-4.17.08-6.63,0-13.27,0-19.9V80.83H87.88V81.9c0,6.67,0,13.33,0,20,0,1.92-.52,3.34-2.31,4.17ZM36.29,95.71h7.76c2.1,0,3.53-1.26,3.54-3.09s-1.42-3.13-3.49-3.13H28.36c-2.08,0-3.5,1.29-3.48,3.14a3.16,3.16,0,0,0,3.44,3.08Zm31.28-3.1a3.11,3.11,0,1,0-3.1,3.09A3.15,3.15,0,0,0,67.57,92.61Zm13.26,0a3.11,3.11,0,1,0-3,3.14A3.15,3.15,0,0,0,80.83,92.56Z"/><path class="cls-1" d="M11.61,60.41a21.37,21.37,0,0,1,.27-38.14,2.39,2.39,0,0,0,1-1.26C17,9.29,25.14,1.94,37.47.3s22,3.51,28.92,13.85a1.78,1.78,0,0,0,1.7,1A21.18,21.18,0,0,1,87.66,28.77,1.64,1.64,0,0,0,89.56,30a16.34,16.34,0,0,1,5.29,31.74l-.68.2c0-.39-.07-.71-.07-1,0-2.7,0-5.39,0-8.09a9.31,9.31,0,0,0-9.64-9.58H21.26A9.32,9.32,0,0,0,11.61,53Z"/><path class="cls-1" d="M87.88,74.52h-70c0-.35-.05-.68-.05-1V53.11c0-2.42,1.2-3.62,3.63-3.62H84.22c2.48,0,3.66,1.19,3.66,3.7V74.52ZM36.17,65.45h8.07a3.11,3.11,0,1,0,0-6.21H28.28a3.12,3.12,0,1,0,0,6.22Zm28.34,0a3.18,3.18,0,0,0,3.06-3.14,3.11,3.11,0,1,0-6.21.09A3.17,3.17,0,0,0,64.51,65.43Zm16.32-3.15a3.11,3.11,0,0,0-6.21,0,3.11,3.11,0,1,0,6.21,0Z"/></g></g></svg>