<svg xmlns="http://www.w3.org/2000/svg" viewBox="0 0 109.51 106.52"><defs><style>.cls-1{fill:#16ffff;}</style></defs><g id="Layer_2" data-name="Layer 2"><g id="Layer_1-2" data-name="Layer 1"><path class="cls-1" d="M54.75,106.52H6a11.94,11.94,0,0,1-2.07-.14A4.72,4.72,0,0,1,.06,102.2,10.13,10.13,0,0,1,0,101V37.9c0-3,1.38-4.87,3.93-5.42a7.08,7.08,0,0,1,1.46-.11c6.53,0,13.06,0,19.59,0a2.68,2.68,0,0,1,1.68.68Q32.8,39,38.82,45a3.65,3.65,0,0,0,2.82,1.14q31,0,62.09,0c3.91,0,5.78,1.85,5.78,5.76v48.87c0,3.9-1.88,5.78-5.78,5.78Zm0-11.76H73.5c.78,0,1.55,0,2.32-.11,6-.55,10.62-5.58,11-12a12.42,12.42,0,0,0-9.63-12.75,1.5,1.5,0,0,1-1.3-1.17,16.26,16.26,0,0,0-25.5-7.32,2.11,2.11,0,0,1-2.09.48c-6.3-1.5-13.18,1.16-16.44,6.48a8,8,0,0,1-3,3,12.7,12.7,0,0,0-5.58,14.23,12.12,12.12,0,0,0,12,9.19C41.71,94.79,48.24,94.76,54.77,94.76Z"/><path class="cls-1" d="M22.19,28.69V9.26H72.7c0,.43.06.87.06,1.31,0,3.51,0,7,0,10.53,0,1.93.56,2.48,2.47,2.48H87.29V42.43H86q-21.67,0-43.35,0a2.61,2.61,0,0,1-2-.84c-3.94-3.91-7.93-7.77-11.85-11.69a3.63,3.63,0,0,0-3-1.24C24.62,28.77,23.47,28.69,22.19,28.69Zm32.5,7.19H68.41c.44,0,1,.13,1.31-.09a3.65,3.65,0,0,0,1.41-1.6,1.49,1.49,0,0,0-1.21-1.84,5.37,5.37,0,0,0-1.45-.14H41a5.32,5.32,0,0,0-1.33.11,1.79,1.79,0,0,0,.17,3.51,8.24,8.24,0,0,0,1.22.05Zm0-8.23c4.62,0,9.23,0,13.84,0a5.49,5.49,0,0,0,1.22-.08A1.8,1.8,0,0,0,69.57,24a8,8,0,0,0-1.1,0H41c-.41,0-.93-.12-1.2.07a3.85,3.85,0,0,0-1.45,1.56,1.48,1.48,0,0,0,1.14,1.88,4.65,4.65,0,0,0,1.45.16C45.55,27.66,50.12,27.65,54.69,27.65Z"/><path class="cls-1" d="M9.72,0H74.77V5.48H21.36c-2.47,0-2.89.44-2.89,2.94V28.59H9.72Z"/><path class="cls-1" d="M76.53,11.91l7.61,7.91H76.53Z"/><path class="cls-1" d="M54.67,91.08c-6.37,0-12.73,0-19.1,0-3.79,0-6.67-1.51-8.25-5a8.76,8.76,0,0,1,1.3-9.84c.94-1.09,2.43-1.69,3.64-2.56.6-.44,1.39-.87,1.62-1.49,2-5.24,8.28-8.35,14.31-6.51A3.44,3.44,0,0,0,52,64.83,12.53,12.53,0,0,1,72.7,71.17c.41,1.73.73,2,2.58,2.14a8.71,8.71,0,0,1,7.83,8.83c0,4.61-3.25,8.58-7.64,8.8-4.56.23-9.13.12-13.7.14C59.4,91.09,57,91.08,54.67,91.08Zm-2-12.72c-1.28-1.31-2.46-2.55-3.67-3.74-1-1-2-1.05-2.8-.28s-.75,1.9.24,2.89C48,78.82,49.63,80.41,51.24,82a1.87,1.87,0,0,0,3.06,0c1.51-1.48,3-3,4.5-4.49s3-2.89,4.37-4.44a2.46,2.46,0,0,0,.5-2,2.07,2.07,0,0,0-1.49-1.16,2.59,2.59,0,0,0-1.77.79C57.85,73.17,55.37,75.7,52.7,78.36Z"/></g></g></svg>